<svg id="svg" version="1.1" xmlns="http://www.w3.org/2000/svg" xmlns:xlink="http://www.w3.org/1999/xlink" width="400" height="388.8888888888889" viewBox="0, 0, 400,388.8888888888889"><g id="svgg"><path id="path0" d="M243.969 32.702 C 234.931 33.341,229.683 33.921,228.099 34.456 C 227.182 34.766,226.132 35.022,225.765 35.024 C 222.956 35.045,211.080 38.855,203.307 42.228 C 186.202 49.651,168.607 63.972,157.953 79.144 C 157.217 80.192,156.105 81.768,155.481 82.645 C 152.144 87.343,150.375 90.291,147.403 96.109 C 144.280 102.221,140.078 112.175,140.078 113.458 C 140.078 113.789,139.898 114.395,139.678 114.805 C 138.213 117.543,135.475 132.978,134.643 143.191 C 133.505 157.153,133.021 262.361,134.081 265.124 C 134.612 266.509,136.459 266.550,188.940 266.347 C 235.269 266.167,240.672 266.083,241.280 265.533 C 242.304 264.606,243.580 265.422,243.580 267.005 C 243.580 268.907,243.878 268.184,245.071 263.394 C 246.197 258.867,246.651 252.790,245.897 252.324 C 245.405 252.020,245.418 249.917,245.914 249.611 C 246.128 249.479,246.292 248.987,246.279 248.518 L 246.254 247.665 245.900 248.547 C 245.240 250.189,245.073 250.195,197.855 250.373 L 152.197 250.545 150.904 249.675 C 149.059 248.435,149.123 250.352,149.068 194.287 L 149.019 144.022 149.899 143.003 C 150.511 142.293,151.368 141.886,152.724 141.660 L 154.669 141.337 152.918 141.285 C 150.531 141.214,149.974 140.828,150.593 139.671 C 151.454 138.062,152.520 132.934,152.530 130.350 C 152.545 126.444,152.724 126.075,154.617 126.040 L 156.226 126.011 154.864 125.521 C 152.247 124.581,152.055 122.931,154.059 118.602 C 154.716 117.183,155.253 115.908,155.253 115.768 C 155.253 115.492,155.837 114.193,159.542 106.226 C 160.885 103.337,162.189 100.710,162.439 100.389 C 162.690 100.068,163.658 98.492,164.592 96.887 C 169.347 88.714,177.780 78.653,184.825 72.748 C 186.216 71.581,187.442 70.539,187.549 70.430 C 188.779 69.185,194.763 64.999,198.249 62.946 C 200.216 61.788,210.661 56.809,211.125 56.809 C 211.310 56.809,212.954 56.217,214.777 55.493 C 218.020 54.207,221.190 53.104,225.097 51.904 C 234.180 49.115,255.215 47.785,264.397 49.419 C 265.681 49.648,268.307 50.080,270.233 50.380 C 273.590 50.903,286.398 54.986,288.951 56.347 C 289.357 56.563,290.513 57.030,291.521 57.385 C 292.529 57.739,293.950 58.434,294.678 58.928 C 295.407 59.422,296.613 60.028,297.358 60.274 C 298.104 60.520,299.501 61.221,300.463 61.831 C 301.426 62.442,302.810 63.227,303.539 63.578 C 304.635 64.104,310.814 68.571,312.866 70.320 C 313.173 70.581,313.949 71.220,314.591 71.740 C 320.198 76.279,329.492 86.497,334.104 93.191 C 336.376 96.489,344.012 111.842,344.593 114.282 C 344.736 114.880,345.078 115.807,345.353 116.342 C 350.818 126.980,352.091 153.415,348.068 172.763 C 347.249 176.705,344.607 185.386,343.984 186.187 C 343.818 186.401,343.458 187.276,343.186 188.132 C 342.914 188.988,342.453 190.034,342.163 190.456 C 341.872 190.878,341.634 191.444,341.634 191.713 C 341.634 191.983,340.934 193.677,340.078 195.479 C 339.222 197.281,338.521 198.918,338.521 199.118 C 338.521 199.318,337.820 200.484,336.962 201.709 C 336.104 202.933,335.049 204.628,334.617 205.474 C 330.245 214.043,316.275 226.718,300.778 236.175 C 292.483 241.238,290.715 242.083,285.798 243.337 C 281.443 244.448,280.419 245.562,279.581 250.097 C 277.579 260.936,277.529 261.287,277.965 261.570 C 279.455 262.539,285.893 261.076,291.212 258.559 C 292.339 258.026,293.858 257.356,294.588 257.070 C 298.027 255.722,298.867 255.343,302.140 253.666 C 310.253 249.508,312.978 247.886,320.394 242.802 C 322.224 241.547,329.921 234.472,332.773 231.424 C 340.460 223.206,346.530 215.164,351.204 207.004 C 352.000 205.613,353.126 203.774,353.705 202.918 C 354.284 202.062,354.881 200.924,355.033 200.389 C 355.184 199.854,355.820 198.346,356.447 197.037 C 358.867 191.977,361.607 184.308,363.800 176.459 C 367.606 162.833,367.864 137.851,364.319 126.265 C 363.992 125.195,363.140 122.305,362.426 119.844 C 361.712 117.383,360.847 114.582,360.503 113.619 C 359.422 110.590,357.901 106.825,357.594 106.420 C 357.432 106.206,357.083 105.331,356.818 104.475 C 356.029 101.921,349.153 88.825,346.768 85.331 C 345.550 83.546,344.025 81.247,343.380 80.222 C 338.416 72.332,318.615 52.918,315.531 52.918 C 315.335 52.918,314.828 52.572,314.405 52.148 C 313.981 51.724,312.651 50.805,311.450 50.105 C 310.249 49.405,308.626 48.438,307.843 47.955 C 305.493 46.504,297.719 42.763,291.829 40.247 C 288.220 38.706,278.308 35.743,274.378 35.030 C 273.020 34.784,271.480 34.419,270.955 34.220 C 269.524 33.675,254.830 32.287,251.213 32.354 C 249.476 32.387,246.216 32.543,243.969 32.702 M206.342 141.535 C 208.225 141.607,211.202 141.606,212.957 141.534 C 214.712 141.462,213.171 141.404,209.533 141.404 C 205.895 141.405,204.459 141.464,206.342 141.535 M262.744 226.265 C 262.748 227.121,262.828 227.425,262.921 226.941 C 263.014 226.457,263.011 225.757,262.913 225.385 C 262.816 225.013,262.740 225.409,262.744 226.265 " stroke="none" fill="#c01c4f" fill-rule="evenodd"></path><path id="path1" d="M257.031 125.200 C 256.874 125.357,233.486 125.574,205.058 125.681 C 176.631 125.788,153.237 126.011,153.072 126.176 C 152.907 126.341,152.648 128.267,152.498 130.456 C 152.228 134.368,151.466 138.040,150.581 139.694 C 149.843 141.072,148.983 141.044,197.107 141.245 L 243.565 141.440 244.837 142.712 L 246.109 143.984 246.244 196.546 C 246.340 234.302,246.258 249.228,245.952 249.535 C 245.422 250.064,245.391 252.011,245.907 252.330 C 247.495 253.312,245.218 264.832,241.445 274.903 C 240.884 276.401,240.241 278.239,240.016 278.988 C 239.791 279.737,239.371 280.788,239.082 281.323 C 238.793 281.858,238.082 283.346,237.502 284.630 C 236.620 286.582,234.099 291.183,232.178 294.346 C 227.357 302.284,220.204 311.051,214.326 316.227 C 212.332 317.983,210.088 319.963,209.339 320.628 C 207.574 322.192,197.921 328.603,194.163 330.705 C 192.558 331.603,190.982 332.504,190.661 332.707 C 190.340 332.910,189.640 333.255,189.105 333.474 C 188.570 333.693,187.607 334.123,186.965 334.430 C 178.876 338.289,169.272 341.189,162.451 341.832 C 160.953 341.974,159.115 342.259,158.366 342.467 C 154.521 343.533,136.184 343.548,132.879 342.487 C 132.237 342.281,129.946 341.912,127.787 341.667 C 124.221 341.262,122.249 340.806,114.397 338.570 C 104.771 335.828,90.130 327.581,81.264 319.905 C 72.242 312.094,67.558 306.882,62.151 298.638 C 59.429 294.490,59.225 294.159,58.537 292.802 C 58.211 292.160,57.524 290.934,57.009 290.078 C 56.494 289.222,55.616 287.558,55.059 286.381 C 54.501 285.204,53.618 283.366,53.098 282.296 C 51.234 278.463,49.134 272.492,48.102 268.093 C 47.525 265.632,46.882 263.077,46.675 262.414 C 44.991 257.048,44.863 234.124,46.473 226.265 C 46.780 224.767,47.327 222.053,47.689 220.233 C 48.710 215.105,52.868 202.989,54.499 200.389 C 54.701 200.068,55.040 199.368,55.254 198.833 C 55.467 198.298,55.808 197.597,56.012 197.276 C 56.215 196.955,56.754 195.953,57.209 195.050 C 57.663 194.146,58.442 192.807,58.940 192.074 C 59.437 191.341,59.967 190.355,60.117 189.882 C 62.082 183.690,82.148 163.010,90.350 158.725 C 90.842 158.467,93.171 156.992,95.525 155.447 C 97.879 153.902,100.243 152.504,100.778 152.341 C 101.313 152.178,101.926 151.915,102.140 151.755 C 103.116 151.030,110.117 147.470,110.576 147.467 C 112.388 147.454,115.237 145.484,116.044 143.687 C 117.062 141.420,117.800 131.363,117.017 130.420 C 116.409 129.687,112.459 130.136,110.561 131.153 C 109.788 131.568,108.890 131.913,108.566 131.920 C 108.242 131.927,107.276 132.271,106.420 132.685 C 105.564 133.098,104.652 133.443,104.394 133.450 C 103.282 133.481,88.201 140.612,85.796 142.244 C 85.029 142.765,84.328 143.191,84.238 143.191 C 84.148 143.191,83.394 143.672,82.562 144.261 C 81.730 144.849,80.192 145.932,79.144 146.667 C 66.414 155.590,53.537 169.873,45.300 184.204 C 44.551 185.509,43.779 186.839,43.586 187.160 C 42.031 189.747,38.328 198.489,37.159 202.335 C 36.802 203.512,36.189 205.438,35.797 206.615 C 31.988 218.067,29.360 233.149,29.392 243.385 C 29.408 248.708,30.459 258.990,31.293 261.990 C 31.602 263.100,31.974 264.971,32.120 266.148 C 32.266 267.325,32.534 268.572,32.717 268.919 C 32.899 269.266,33.299 270.667,33.606 272.032 C 38.119 292.117,54.388 318.572,70.034 331.266 C 71.642 332.571,73.132 333.832,73.346 334.069 C 73.560 334.305,74.698 335.143,75.875 335.929 C 79.427 338.304,79.900 338.635,81.499 339.866 C 83.184 341.164,83.945 341.642,85.992 342.686 C 86.741 343.067,88.142 343.913,89.105 344.564 C 90.068 345.216,91.994 346.249,93.385 346.861 C 94.776 347.473,96.260 348.211,96.682 348.500 C 97.104 348.790,97.737 349.027,98.089 349.027 C 98.440 349.027,99.173 349.377,99.717 349.805 C 100.261 350.233,100.944 350.584,101.234 350.584 C 101.525 350.584,102.423 350.938,103.231 351.371 C 104.882 352.256,110.269 354.084,111.236 354.088 C 111.584 354.089,112.337 354.335,112.910 354.634 C 114.304 355.361,121.408 357.091,124.313 357.410 C 125.593 357.551,127.782 357.908,129.177 358.204 C 132.170 358.839,155.754 358.946,158.949 358.339 C 160.019 358.136,162.909 357.788,165.370 357.566 C 167.831 357.343,170.982 356.823,172.374 356.410 C 173.765 355.997,176.916 355.045,179.377 354.296 C 181.839 353.547,184.465 352.818,185.214 352.677 C 186.423 352.450,190.245 350.801,191.829 349.824 C 192.823 349.210,196.817 347.471,197.232 347.471 C 198.867 347.471,215.541 336.478,221.431 331.518 C 227.196 326.663,233.198 320.128,239.105 312.276 C 240.175 310.854,241.707 308.828,242.510 307.775 C 243.312 306.721,243.972 305.723,243.976 305.556 C 243.982 305.298,245.632 302.640,246.588 301.347 C 246.857 300.983,247.289 300.124,249.123 296.304 C 249.431 295.661,250.391 293.735,251.256 292.023 C 254.960 284.696,256.135 281.821,256.982 278.016 C 257.268 276.732,257.682 275.156,257.902 274.514 C 258.290 273.384,259.068 269.961,260.689 262.257 C 262.546 253.427,264.197 133.448,262.542 127.534 C 262.088 125.911,258.036 124.195,257.031 125.200 " stroke="none" fill="#7925d9" fill-rule="evenodd"></path><path id="path2" d="M0.000 194.553 L 0.000 389.105 200.000 389.105 L 400.000 389.105 400.000 194.553 L 400.000 0.000 200.000 0.000 L 0.000 0.000 0.000 194.553 M266.342 31.073 C 268.482 31.303,270.846 31.741,271.595 32.046 C 272.344 32.352,274.008 32.783,275.292 33.004 C 277.926 33.459,283.064 34.807,284.241 35.353 C 284.669 35.551,286.595 36.203,288.521 36.802 C 290.447 37.400,292.300 38.119,292.638 38.400 C 292.976 38.681,293.391 38.911,293.562 38.911 C 294.142 38.911,298.635 41.006,299.566 41.710 C 300.076 42.097,300.797 42.412,301.167 42.412 C 301.538 42.412,302.286 42.763,302.830 43.191 C 303.374 43.619,304.008 43.969,304.238 43.969 C 304.615 43.969,306.663 44.928,310.506 46.904 C 311.255 47.290,312.568 48.156,313.424 48.830 C 314.883 49.977,318.726 52.631,320.191 53.502 C 320.551 53.716,321.277 54.304,321.804 54.808 C 322.331 55.313,323.395 56.131,324.167 56.627 C 324.940 57.123,326.907 58.811,328.538 60.379 C 330.170 61.947,332.383 63.994,333.457 64.928 C 334.530 65.863,335.409 66.855,335.409 67.133 C 335.409 67.412,335.567 67.698,335.761 67.769 C 336.117 67.900,339.611 71.852,341.051 73.753 C 341.479 74.318,342.102 75.070,342.436 75.425 C 342.770 75.780,343.692 77.033,344.486 78.210 C 346.341 80.963,348.232 83.695,350.141 86.381 C 350.977 87.558,352.402 90.097,353.308 92.023 C 356.977 99.827,357.512 101.013,357.785 101.946 C 357.941 102.481,358.297 103.181,358.576 103.502 C 358.855 103.823,359.203 104.611,359.350 105.253 C 359.496 105.895,359.964 107.208,360.390 108.171 C 362.229 112.330,363.172 114.916,363.867 117.704 C 364.081 118.560,364.446 119.609,364.679 120.034 C 365.209 121.002,366.409 125.520,366.953 128.599 C 367.180 129.883,367.661 131.809,368.021 132.879 C 368.992 135.758,369.000 162.444,368.032 165.953 C 367.678 167.237,367.261 169.339,367.105 170.623 C 366.949 171.907,366.670 173.363,366.485 173.859 C 366.299 174.354,365.890 175.993,365.576 177.501 C 365.262 179.008,364.844 180.441,364.647 180.685 C 364.451 180.929,364.166 181.916,364.014 182.879 C 363.863 183.842,363.497 185.012,363.201 185.478 C 362.906 185.945,362.550 187.036,362.412 187.903 C 362.273 188.770,361.919 189.679,361.625 189.924 C 361.330 190.168,361.089 190.583,361.089 190.846 C 361.089 191.109,360.652 192.147,360.117 193.153 C 359.582 194.160,359.144 195.297,359.144 195.680 C 359.144 196.064,358.794 196.694,358.366 197.082 C 357.938 197.469,357.586 198.240,357.585 198.796 C 357.584 199.351,357.235 200.331,356.809 200.973 C 356.384 201.615,356.035 202.425,356.034 202.773 C 356.032 203.122,355.803 203.596,355.525 203.827 C 355.246 204.058,354.327 205.581,353.482 207.211 C 351.227 211.563,350.416 212.839,347.969 215.892 C 347.053 217.035,346.303 218.085,346.302 218.226 C 346.301 218.367,345.732 219.106,345.037 219.867 C 344.343 220.629,343.114 222.205,342.308 223.369 C 338.596 228.728,323.829 243.580,322.213 243.580 C 322.034 243.580,321.233 244.180,320.432 244.913 C 319.632 245.646,318.472 246.455,317.854 246.711 C 317.237 246.967,316.732 247.313,316.732 247.480 C 316.732 247.647,316.206 247.967,315.564 248.191 C 314.922 248.415,314.397 248.768,314.397 248.977 C 314.397 249.185,313.784 249.558,313.035 249.805 C 312.286 250.053,311.673 250.404,311.673 250.585 C 311.673 250.767,311.192 251.168,310.603 251.476 C 310.015 251.784,307.960 252.954,306.038 254.075 C 304.116 255.197,301.314 256.552,299.812 257.087 C 298.311 257.622,295.641 258.742,293.880 259.575 C 292.118 260.408,290.105 261.093,289.405 261.098 C 288.705 261.103,287.695 261.449,287.160 261.868 C 286.625 262.286,285.837 262.634,285.409 262.640 C 284.981 262.646,284.105 262.927,283.463 263.265 C 282.821 263.603,281.044 263.976,279.514 264.094 L 276.732 264.309 275.767 262.796 C 275.116 261.778,274.907 261.081,275.125 260.663 C 275.304 260.321,275.617 258.695,275.821 257.050 C 276.026 255.404,276.367 253.845,276.580 253.585 C 276.793 253.325,277.093 252.062,277.246 250.778 C 277.842 245.778,280.407 242.412,283.623 242.412 C 284.274 242.412,285.379 242.063,286.080 241.636 C 286.781 241.208,287.643 240.858,287.996 240.857 C 288.350 240.857,290.363 239.806,292.471 238.523 C 294.579 237.240,296.501 236.189,296.742 236.188 C 296.984 236.187,297.398 235.925,297.664 235.604 C 297.930 235.284,299.221 234.480,300.533 233.816 C 301.845 233.153,303.226 232.337,303.602 232.001 C 304.308 231.372,305.320 230.743,307.004 229.886 C 308.729 229.008,312.185 226.522,313.799 224.998 C 314.663 224.182,316.333 222.733,317.510 221.779 C 320.562 219.304,327.434 212.217,329.006 209.922 C 329.740 208.852,330.952 207.101,331.701 206.031 C 332.450 204.961,333.065 203.861,333.068 203.587 C 333.071 203.313,333.337 202.988,333.658 202.864 C 333.979 202.741,334.241 202.410,334.241 202.128 C 334.241 201.847,334.640 201.121,335.127 200.516 C 336.103 199.306,338.301 194.957,339.887 191.098 C 340.448 189.734,341.246 187.985,341.660 187.213 C 342.074 186.441,342.412 185.483,342.412 185.084 C 342.412 184.685,342.664 183.807,342.971 183.133 C 343.529 181.905,344.439 178.771,345.189 175.486 C 346.623 169.206,347.082 166.818,347.082 165.635 C 347.082 164.897,347.446 161.602,347.892 158.314 C 349.030 149.913,348.318 132.641,346.634 127.821 C 346.410 127.179,346.053 125.778,345.841 124.708 C 345.629 123.638,344.841 121.012,344.090 118.872 C 343.339 116.732,342.635 114.280,342.527 113.424 C 342.419 112.568,342.012 111.518,341.622 111.089 C 341.233 110.661,340.797 109.842,340.655 109.269 C 340.513 108.696,340.172 108.141,339.897 108.036 C 339.623 107.930,339.284 107.235,339.144 106.490 C 339.004 105.746,338.643 104.932,338.342 104.681 C 338.040 104.431,337.680 103.713,337.543 103.086 C 337.405 102.459,337.158 101.946,336.994 101.946 C 336.829 101.946,336.121 100.852,335.421 99.515 C 334.720 98.178,333.817 96.666,333.416 96.155 C 333.014 95.644,332.685 95.056,332.685 94.848 C 332.685 94.640,331.984 93.590,331.128 92.515 C 330.272 91.439,329.572 90.320,329.572 90.027 C 329.572 89.734,329.402 89.494,329.195 89.494 C 328.988 89.494,328.594 89.076,328.320 88.565 C 327.140 86.367,313.565 72.473,312.282 72.151 C 311.733 72.013,311.284 71.759,311.284 71.587 C 311.284 71.228,305.649 67.315,305.132 67.315 C 304.944 67.315,304.473 66.965,304.086 66.537 C 303.698 66.109,303.146 65.759,302.858 65.759 C 302.570 65.759,302.014 65.452,301.621 65.078 C 300.385 63.899,288.195 57.580,287.160 57.582 C 286.839 57.582,286.107 57.338,285.534 57.039 C 284.961 56.740,282.597 56.016,280.281 55.431 C 277.965 54.846,275.420 54.041,274.626 53.643 C 273.832 53.244,272.782 52.921,272.292 52.925 C 271.802 52.928,269.825 52.584,267.899 52.161 C 262.514 50.976,252.603 50.415,246.294 50.937 C 243.410 51.175,239.977 51.448,238.665 51.542 C 234.204 51.862,228.142 53.191,221.595 55.285 C 220.311 55.695,219.032 56.031,218.753 56.031 C 218.474 56.031,217.511 56.365,216.613 56.774 C 215.715 57.183,214.280 57.646,213.424 57.803 C 212.568 57.961,211.450 58.414,210.940 58.811 C 210.429 59.208,209.707 59.533,209.334 59.533 C 208.961 59.533,208.438 59.796,208.171 60.117 C 207.905 60.438,207.507 60.700,207.287 60.700 C 206.617 60.700,199.499 64.352,198.753 65.078 C 198.369 65.452,197.819 65.759,197.531 65.759 C 197.243 65.759,196.691 66.109,196.304 66.537 C 195.916 66.965,195.422 67.315,195.206 67.315 C 194.989 67.315,194.535 67.577,194.196 67.897 C 192.947 69.076,191.123 70.428,190.782 70.428 C 190.090 70.428,188.388 71.918,182.457 77.714 C 180.656 79.474,178.132 82.134,176.848 83.626 C 175.564 85.117,174.315 86.347,174.073 86.359 C 173.830 86.371,173.528 86.688,173.401 87.062 C 173.274 87.437,172.565 88.531,171.825 89.494 C 171.085 90.457,170.468 91.452,170.454 91.705 C 170.440 91.958,170.078 92.277,169.650 92.412 C 169.222 92.548,168.868 92.954,168.865 93.314 C 168.861 93.674,168.379 94.691,167.794 95.574 C 165.922 98.402,164.477 100.912,163.343 103.307 C 162.735 104.591,161.959 106.167,161.618 106.809 C 157.854 113.903,157.257 115.303,156.230 119.455 C 155.939 120.632,155.584 121.971,155.442 122.430 C 155.016 123.805,156.542 123.840,210.725 123.686 C 266.462 123.529,263.023 123.407,263.845 125.570 C 264.257 126.654,264.789 169.161,264.779 200.195 C 264.770 227.463,264.035 254.184,263.228 256.559 C 262.927 257.447,262.563 259.662,262.421 261.480 C 262.278 263.298,261.935 265.311,261.657 265.953 C 261.380 266.595,261.043 268.096,260.908 269.287 C 260.773 270.479,260.419 271.922,260.122 272.495 C 259.825 273.068,259.464 274.321,259.320 275.279 C 259.176 276.238,258.728 277.404,258.323 277.870 C 257.801 278.472,257.588 279.317,257.588 280.776 C 257.588 281.908,257.417 282.939,257.209 283.067 C 257.001 283.196,256.648 284.038,256.425 284.939 C 256.201 285.839,255.688 287.276,255.285 288.132 C 254.881 288.988,254.360 290.126,254.126 290.661 C 253.893 291.196,253.544 291.897,253.352 292.218 C 253.159 292.539,252.809 293.239,252.574 293.774 C 252.125 294.795,251.647 295.623,250.519 297.335 C 250.146 297.902,249.726 298.821,249.586 299.377 C 249.446 299.934,249.178 300.389,248.990 300.389 C 248.802 300.389,248.379 300.958,248.049 301.654 C 247.071 303.719,246.371 304.825,245.762 305.270 C 245.446 305.501,245.066 306.175,244.917 306.768 C 244.769 307.360,244.419 307.932,244.141 308.039 C 243.862 308.146,243.456 308.745,243.238 309.370 C 243.020 309.995,242.658 310.506,242.433 310.506 C 242.208 310.506,242.023 310.740,242.023 311.026 C 242.023 311.775,235.260 320.347,232.977 322.491 C 232.602 322.842,232.296 323.271,232.296 323.443 C 232.296 323.791,225.440 330.739,225.097 330.739 C 224.979 330.739,224.317 331.255,223.628 331.886 C 221.104 334.193,218.631 336.176,216.575 337.540 C 215.417 338.309,214.378 339.178,214.265 339.471 C 214.152 339.764,213.523 340.122,212.867 340.267 C 212.210 340.411,211.673 340.660,211.673 340.821 C 211.673 341.133,208.056 343.580,207.595 343.580 C 207.444 343.580,206.876 343.930,206.332 344.358 C 205.788 344.786,205.055 345.136,204.703 345.136 C 204.352 345.136,203.764 345.486,203.398 345.914 C 203.031 346.342,202.386 346.693,201.964 346.693 C 201.543 346.693,200.884 347.022,200.502 347.425 C 200.119 347.829,199.251 348.277,198.573 348.422 C 197.896 348.567,197.245 348.938,197.126 349.246 C 197.008 349.554,196.408 349.805,195.792 349.805 C 195.177 349.805,194.365 350.146,193.989 350.562 C 193.612 350.977,192.812 351.426,192.210 351.558 C 191.608 351.690,191.025 352.034,190.915 352.322 C 190.804 352.609,190.136 352.972,189.429 353.127 C 188.722 353.282,187.780 353.648,187.335 353.940 C 186.889 354.231,185.661 354.582,184.605 354.719 C 183.549 354.856,182.422 355.193,182.101 355.467 C 181.780 355.741,180.817 356.083,179.961 356.227 C 179.105 356.371,177.877 356.724,177.233 357.012 C 176.588 357.300,175.100 357.659,173.925 357.808 C 172.751 357.958,171.615 358.214,171.401 358.378 C 170.025 359.429,147.353 360.281,134.241 359.774 C 128.070 359.536,125.032 359.197,115.953 357.735 C 115.204 357.615,114.154 357.280,113.619 356.992 C 113.084 356.703,112.033 356.368,111.284 356.247 C 110.535 356.126,109.433 355.772,108.836 355.460 C 108.238 355.148,107.100 354.777,106.307 354.635 C 105.513 354.492,104.599 354.146,104.274 353.864 C 103.950 353.583,102.951 353.188,102.055 352.986 C 101.158 352.785,100.141 352.337,99.795 351.991 C 99.449 351.645,98.938 351.362,98.658 351.362 C 98.378 351.362,97.941 351.110,97.686 350.803 C 97.431 350.496,96.666 350.123,95.985 349.974 C 95.304 349.826,94.329 349.377,93.819 348.977 C 93.309 348.576,92.647 348.249,92.348 348.249 C 92.049 348.249,91.708 347.997,91.590 347.689 C 91.471 347.381,90.820 347.012,90.143 346.869 C 89.465 346.726,88.560 346.289,88.132 345.898 C 87.704 345.508,86.916 344.998,86.381 344.766 C 84.499 343.951,81.383 342.143,80.255 341.213 C 79.628 340.696,78.390 339.835,77.505 339.300 C 76.620 338.765,75.892 338.108,75.886 337.840 C 75.880 337.573,75.635 337.354,75.341 337.354 C 75.048 337.354,73.747 336.381,72.452 335.192 C 71.156 334.004,69.339 332.485,68.414 331.818 C 66.625 330.529,64.509 328.637,62.507 326.538 C 61.835 325.833,60.627 324.577,59.825 323.748 C 59.022 322.919,58.366 322.057,58.366 321.834 C 58.366 321.611,58.027 321.247,57.614 321.026 C 57.200 320.804,56.740 320.229,56.592 319.747 C 56.443 319.266,56.078 318.609,55.781 318.288 C 55.484 317.967,54.587 317.001,53.788 316.141 C 52.989 315.281,51.467 313.267,50.407 311.666 C 49.347 310.065,48.165 308.442,47.780 308.059 C 47.396 307.676,47.082 307.128,47.082 306.842 C 47.082 306.555,46.823 306.106,46.506 305.843 C 46.190 305.581,45.692 304.902,45.401 304.336 C 42.344 298.390,40.304 294.640,39.850 294.133 C 39.547 293.795,39.300 293.078,39.300 292.539 C 39.300 292.000,38.949 291.155,38.521 290.661 C 38.093 290.168,37.743 289.377,37.743 288.903 C 37.743 288.430,37.425 287.625,37.037 287.115 C 35.892 285.612,34.770 283.185,34.467 281.558 C 34.312 280.724,33.944 279.673,33.649 279.223 C 33.354 278.773,32.993 277.617,32.846 276.654 C 32.699 275.691,32.422 274.703,32.230 274.458 C 32.038 274.214,31.637 272.726,31.338 271.151 C 31.039 269.576,30.597 267.588,30.355 266.732 C 30.114 265.875,29.763 263.424,29.575 261.284 C 29.387 259.144,28.959 256.436,28.625 255.265 C 27.767 252.270,27.763 235.202,28.619 231.518 C 28.942 230.126,29.356 227.500,29.539 225.681 C 29.721 223.862,30.142 221.235,30.474 219.844 C 30.805 218.453,31.191 216.456,31.330 215.405 C 31.470 214.355,31.776 213.041,32.012 212.487 C 32.247 211.932,32.653 210.516,32.914 209.339 C 33.450 206.913,34.389 204.161,35.169 202.724 C 35.460 202.189,35.823 201.051,35.978 200.195 C 36.132 199.339,36.493 198.200,36.780 197.665 C 37.067 197.130,37.929 195.345,38.695 193.697 C 39.461 192.049,40.261 190.594,40.472 190.464 C 40.683 190.333,40.856 189.881,40.856 189.459 C 40.856 189.037,41.114 188.593,41.429 188.472 C 41.744 188.351,42.117 187.642,42.256 186.896 C 42.396 186.151,42.741 185.453,43.021 185.345 C 43.302 185.237,43.653 184.595,43.801 183.917 C 43.949 183.239,44.398 182.267,44.798 181.757 C 45.198 181.246,45.525 180.617,45.525 180.358 C 45.525 180.099,45.875 179.570,46.304 179.183 C 46.732 178.796,47.082 178.327,47.082 178.141 C 47.082 177.646,49.133 174.565,49.704 174.202 C 49.974 174.031,50.195 173.635,50.195 173.321 C 50.195 173.008,50.982 171.940,51.946 170.949 C 52.909 169.958,53.696 169.004,53.696 168.828 C 53.696 168.652,54.309 167.896,55.058 167.147 C 55.807 166.398,56.420 165.610,56.420 165.396 C 56.420 165.183,56.770 164.821,57.198 164.591 C 57.626 164.362,57.977 163.944,57.977 163.662 C 57.977 163.380,59.924 161.329,62.304 159.104 C 64.684 156.879,67.741 154.008,69.098 152.724 C 70.456 151.440,71.842 150.157,72.179 149.874 C 76.222 146.474,77.483 145.525,77.957 145.525 C 78.264 145.525,78.610 145.279,78.726 144.978 C 78.841 144.677,79.474 144.313,80.133 144.168 C 80.791 144.024,81.509 143.570,81.729 143.159 C 81.949 142.748,82.466 142.412,82.879 142.412 C 83.292 142.412,83.818 142.062,84.047 141.634 C 84.276 141.206,84.795 140.856,85.200 140.856 C 85.605 140.856,86.238 140.555,86.607 140.186 C 87.315 139.477,87.378 139.439,91.634 137.151 C 93.132 136.346,94.703 135.449,95.125 135.159 C 95.548 134.868,96.248 134.629,96.682 134.628 C 97.116 134.626,97.996 134.277,98.638 133.852 C 99.280 133.427,100.071 133.078,100.395 133.076 C 100.719 133.075,101.646 132.719,102.454 132.286 C 103.263 131.853,104.749 131.385,105.756 131.248 C 106.763 131.110,108.113 130.677,108.755 130.286 C 109.400 129.893,110.662 129.574,111.576 129.573 C 112.709 129.572,113.474 129.327,114.008 128.794 C 117.014 125.787,120.833 130.213,118.689 134.219 C 118.506 134.561,118.253 136.928,118.126 139.479 C 117.923 143.545,117.787 144.240,117.021 145.107 C 115.079 147.307,114.221 147.937,112.881 148.145 C 112.110 148.265,111.040 148.644,110.504 148.987 C 109.968 149.330,109.180 149.833,108.753 150.105 C 108.326 150.377,107.437 150.848,106.778 151.153 C 106.119 151.457,105.354 151.979,105.077 152.312 C 104.800 152.646,104.289 152.919,103.941 152.921 C 103.592 152.922,102.782 153.271,102.140 153.696 C 101.498 154.122,100.679 154.471,100.320 154.472 C 99.960 154.474,99.365 154.776,98.997 155.145 C 98.358 155.783,97.721 156.177,95.177 157.503 C 94.557 157.826,93.725 158.415,93.328 158.812 C 92.932 159.208,92.257 159.533,91.829 159.533 C 91.401 159.533,91.051 159.713,91.051 159.932 C 91.051 160.151,90.613 160.497,90.078 160.700 C 89.543 160.904,89.105 161.232,89.105 161.431 C 89.105 161.629,88.536 162.154,87.840 162.599 C 87.145 163.043,86.228 163.629,85.804 163.902 C 85.379 164.174,84.800 164.703,84.517 165.078 C 84.234 165.452,83.865 165.759,83.696 165.759 C 83.527 165.759,82.436 166.678,81.270 167.802 C 80.104 168.925,78.545 170.305,77.805 170.868 C 77.065 171.431,75.969 172.350,75.369 172.911 C 74.770 173.471,74.113 173.930,73.910 173.930 C 73.707 173.930,73.541 174.112,73.541 174.334 C 73.541 174.556,72.841 175.466,71.986 176.356 C 71.132 177.246,70.326 178.307,70.197 178.714 C 70.068 179.121,69.323 180.125,68.541 180.944 C 66.714 182.861,66.359 183.309,65.758 184.460 C 65.485 184.982,65.019 185.671,64.721 185.992 C 62.979 187.874,62.257 188.802,62.257 189.161 C 62.257 189.384,61.907 190.011,61.479 190.555 C 61.051 191.099,60.700 191.844,60.700 192.210 C 60.700 192.576,60.350 193.192,59.922 193.580 C 59.494 193.967,59.144 194.568,59.144 194.915 C 59.144 195.263,58.794 195.847,58.366 196.213 C 57.938 196.580,57.588 197.160,57.588 197.503 C 57.588 197.846,57.237 198.571,56.809 199.116 C 56.381 199.660,56.031 200.351,56.031 200.652 C 56.031 200.952,55.681 201.885,55.253 202.724 C 54.825 203.563,54.475 204.583,54.475 204.990 C 54.475 205.398,54.150 206.149,53.753 206.660 C 53.356 207.170,52.902 208.288,52.744 209.144 C 52.587 210.000,52.222 211.138,51.933 211.673 C 51.645 212.208,51.306 213.285,51.180 214.066 C 51.055 214.847,50.694 215.700,50.379 215.962 C 50.024 216.257,49.805 217.129,49.805 218.253 C 49.805 219.301,49.476 220.715,49.027 221.595 C 48.590 222.453,48.248 223.895,48.246 224.888 C 48.242 227.234,47.519 231.618,47.059 232.082 C 46.548 232.597,46.574 255.368,47.087 255.881 C 47.304 256.098,47.660 257.840,47.877 259.752 C 48.095 261.665,48.539 263.708,48.862 264.292 C 49.186 264.876,49.558 266.277,49.689 267.405 C 49.821 268.532,50.146 269.805,50.412 270.233 C 50.678 270.661,51.011 271.564,51.152 272.238 C 51.292 272.913,51.747 274.132,52.163 274.947 C 52.578 275.762,52.918 276.896,52.918 277.467 C 52.918 278.037,53.170 278.713,53.477 278.968 C 53.784 279.223,54.157 279.988,54.306 280.669 C 54.455 281.350,54.906 282.327,55.308 282.841 C 55.711 283.354,56.148 284.449,56.280 285.273 C 56.412 286.096,56.666 286.770,56.844 286.770 C 57.022 286.770,57.357 287.471,57.588 288.327 C 57.818 289.183,58.165 289.883,58.360 289.883 C 58.702 289.883,59.124 290.547,60.584 293.385 C 60.969 294.134,61.503 294.887,61.770 295.058 C 62.038 295.229,62.257 295.611,62.257 295.906 C 62.257 296.201,62.497 296.682,62.790 296.976 C 63.083 297.269,63.590 298.026,63.917 298.657 C 64.244 299.289,65.142 300.475,65.913 301.293 C 66.684 302.110,67.315 303.023,67.315 303.321 C 67.315 303.620,67.665 304.051,68.093 304.280 C 68.521 304.509,68.872 304.911,68.872 305.173 C 68.872 305.435,69.222 305.868,69.650 306.135 C 70.078 306.403,70.428 306.883,70.428 307.202 C 70.428 307.521,70.691 307.782,71.012 307.782 C 71.333 307.782,71.595 307.980,71.595 308.222 C 71.595 308.737,80.057 317.121,80.576 317.121 C 80.769 317.121,81.146 317.471,81.413 317.899 C 81.681 318.327,82.108 318.677,82.363 318.677 C 82.618 318.677,82.938 319.027,83.074 319.455 C 83.210 319.883,83.545 320.233,83.818 320.233 C 84.091 320.233,84.632 320.584,85.019 321.012 C 85.407 321.440,85.909 321.790,86.136 321.790 C 86.363 321.790,86.905 322.132,87.340 322.550 C 89.313 324.442,89.921 324.903,90.447 324.903 C 90.757 324.903,91.483 325.340,92.060 325.875 C 92.637 326.411,93.347 326.848,93.637 326.848 C 93.926 326.848,94.163 327.021,94.163 327.232 C 94.163 327.443,94.732 327.884,95.428 328.212 C 97.501 329.188,99.007 330.125,99.338 330.642 C 99.510 330.910,99.888 331.128,100.179 331.128 C 100.818 331.128,110.517 334.965,111.142 335.465 C 111.385 335.659,112.435 336.063,113.476 336.362 C 114.518 336.661,116.550 337.247,117.993 337.663 C 119.435 338.080,120.836 338.595,121.105 338.808 C 121.375 339.021,122.964 339.294,124.636 339.414 C 126.402 339.541,128.069 339.889,128.611 340.244 C 129.268 340.675,130.558 340.866,132.963 340.891 C 134.843 340.910,138.745 341.131,141.634 341.382 C 145.701 341.735,148.073 341.731,152.140 341.365 C 155.029 341.105,158.285 340.884,159.376 340.874 C 160.467 340.864,161.867 340.603,162.489 340.293 C 163.110 339.983,164.844 339.606,166.342 339.455 C 167.840 339.303,169.416 338.958,169.844 338.686 C 170.272 338.415,171.498 338.073,172.568 337.926 C 173.638 337.779,174.866 337.438,175.298 337.168 C 175.729 336.899,176.692 336.549,177.438 336.390 C 178.184 336.232,179.340 335.772,180.007 335.367 C 180.674 334.962,181.531 334.630,181.910 334.630 C 182.576 334.630,184.719 333.748,187.549 332.308 C 188.298 331.927,189.465 331.495,190.143 331.348 C 190.820 331.201,191.471 330.829,191.590 330.521 C 191.708 330.213,192.046 329.961,192.341 329.961 C 192.636 329.961,193.281 329.611,193.774 329.183 C 194.268 328.755,194.926 328.405,195.237 328.405 C 195.548 328.405,196.322 327.967,196.958 327.432 C 197.594 326.897,198.321 326.459,198.574 326.459 C 198.828 326.459,199.253 326.109,199.521 325.681 C 199.788 325.253,200.268 324.903,200.587 324.903 C 200.906 324.903,201.167 324.757,201.167 324.579 C 201.167 324.260,204.748 321.790,205.210 321.790 C 205.341 321.790,205.754 321.512,206.128 321.173 C 208.440 319.077,210.056 317.827,210.992 317.409 C 211.581 317.146,212.062 316.706,212.062 316.432 C 212.062 316.158,212.500 315.768,213.035 315.564 C 213.570 315.361,214.008 315.035,214.008 314.840 C 214.008 314.645,215.015 313.423,216.245 312.125 C 218.895 309.330,219.718 308.383,222.311 305.156 C 223.385 303.818,224.408 302.724,224.583 302.724 C 224.759 302.724,224.903 302.456,224.903 302.128 C 224.903 301.800,225.153 301.436,225.459 301.318 C 225.765 301.201,226.194 300.594,226.412 299.969 C 226.630 299.344,226.975 298.833,227.179 298.833 C 227.625 298.833,228.871 296.829,230.603 293.324 C 231.307 291.900,232.020 290.674,232.187 290.600 C 232.354 290.527,233.071 289.329,233.782 287.938 C 234.492 286.547,235.321 284.971,235.624 284.436 C 235.927 283.901,236.178 283.178,236.181 282.830 C 236.184 282.481,236.438 281.988,236.745 281.733 C 237.053 281.478,237.414 280.768,237.549 280.156 C 237.683 279.543,238.045 278.833,238.352 278.578 C 238.659 278.323,238.912 277.830,238.914 277.482 C 238.916 277.133,239.348 275.973,239.875 274.903 C 240.401 273.833,240.837 272.597,240.844 272.156 C 240.851 271.715,241.113 271.015,241.427 270.600 C 242.975 268.554,246.395 268.677,188.173 268.677 C 127.918 268.677,133.543 268.937,132.070 266.088 C 130.847 263.722,131.030 155.349,132.277 143.580 C 132.493 141.547,132.841 137.870,133.051 135.409 C 133.261 132.947,133.606 130.409,133.818 129.767 C 134.029 129.125,134.667 126.235,135.236 123.346 C 135.804 120.457,136.499 117.568,136.780 116.926 C 137.062 116.284,137.858 114.008,138.550 111.868 C 139.242 109.728,139.934 107.802,140.087 107.588 C 140.240 107.374,140.577 106.542,140.835 105.739 C 141.094 104.937,141.459 104.280,141.647 104.280 C 141.834 104.280,142.106 103.624,142.250 102.821 C 142.584 100.965,145.901 94.059,147.942 90.969 C 148.325 90.389,148.638 89.744,148.638 89.536 C 148.638 88.954,151.045 85.214,151.420 85.214 C 151.602 85.214,151.751 84.946,151.751 84.618 C 151.751 84.290,151.999 83.927,152.302 83.811 C 152.605 83.695,153.503 82.562,154.298 81.294 C 155.093 80.026,155.896 78.988,156.082 78.988 C 156.268 78.988,156.420 78.654,156.420 78.245 C 156.420 77.429,158.748 74.273,161.245 71.705 C 162.862 70.042,163.849 68.974,166.826 65.669 C 168.569 63.735,172.277 60.255,175.025 57.977 C 175.928 57.228,177.554 55.780,178.639 54.759 C 179.724 53.739,181.131 52.635,181.766 52.307 C 182.401 51.978,183.218 51.449,183.581 51.130 C 186.483 48.584,194.409 43.969,195.880 43.969 C 196.168 43.969,196.615 43.713,196.874 43.401 C 197.439 42.721,201.964 40.467,202.765 40.467 C 203.075 40.467,203.674 40.227,204.096 39.933 C 204.518 39.639,205.421 39.278,206.102 39.130 C 206.782 38.982,207.548 38.609,207.803 38.302 C 208.058 37.995,208.551 37.742,208.900 37.741 C 209.248 37.739,210.058 37.460,210.700 37.119 C 213.277 35.752,221.680 33.358,225.681 32.852 C 226.858 32.703,228.034 32.413,228.293 32.208 C 228.553 32.003,231.605 31.586,235.074 31.283 C 238.544 30.979,241.481 30.633,241.601 30.513 C 241.953 30.161,262.097 30.616,266.342 31.073 M153.123 143.472 C 151.314 143.940,151.378 142.017,151.384 195.956 L 151.390 246.969 152.330 247.398 C 152.996 247.701,165.508 247.826,195.215 247.825 C 242.751 247.823,243.646 247.807,243.950 246.941 C 244.290 245.972,244.165 144.035,243.823 143.693 C 243.490 143.360,154.394 143.143,153.123 143.472 " stroke="none" fill="#fbfbfb" fill-rule="evenodd"></path><path id="path3" d="M238.716 31.781 C 238.074 31.881,234.747 32.383,231.323 32.897 C 223.758 34.030,215.796 35.879,213.035 37.143 C 212.393 37.437,210.730 38.140,209.339 38.705 C 207.947 39.271,206.345 39.986,205.777 40.295 C 205.209 40.603,204.541 40.856,204.293 40.856 C 204.046 40.856,202.934 41.272,201.824 41.779 C 200.714 42.287,199.543 42.815,199.222 42.952 C 198.901 43.089,197.675 43.737,196.498 44.393 C 194.423 45.548,190.876 47.487,188.803 48.598 C 187.984 49.037,185.372 50.908,180.737 54.376 C 175.660 58.175,164.218 69.281,161.192 73.346 C 160.237 74.630,159.335 75.768,159.189 75.875 C 159.042 75.982,158.269 77.033,157.470 78.210 C 156.671 79.387,155.314 81.313,154.454 82.490 C 150.568 87.813,145.831 96.216,143.270 102.335 C 139.971 110.217,139.300 111.963,139.300 112.658 C 139.300 113.013,139.048 113.769,138.741 114.337 C 138.071 115.578,136.576 120.641,136.576 121.671 C 136.576 122.075,136.303 123.448,135.970 124.724 C 135.277 127.379,134.483 132.733,133.578 140.856 C 132.816 147.693,132.310 263.945,133.034 265.849 C 133.314 266.586,133.857 267.002,134.905 267.284 C 136.500 267.714,239.933 267.509,241.537 267.073 C 242.727 266.750,242.787 269.732,241.634 271.883 C 241.206 272.681,240.855 273.688,240.853 274.119 C 240.852 274.550,240.503 275.428,240.078 276.070 C 239.653 276.712,239.304 277.513,239.302 277.850 C 239.296 279.388,229.300 297.835,227.315 299.974 C 226.684 300.653,226.374 301.047,224.401 303.674 C 218.513 311.515,211.261 318.403,203.307 323.711 C 201.595 324.853,200.087 325.955,199.955 326.159 C 199.696 326.560,198.739 327.152,196.304 328.418 C 195.447 328.862,194.047 329.634,193.191 330.132 C 184.587 335.138,172.150 339.432,162.062 340.879 C 160.564 341.094,157.412 341.545,155.058 341.881 C 148.758 342.782,135.726 342.253,128.599 340.806 C 127.529 340.589,125.088 340.154,123.174 339.841 C 121.260 339.527,119.498 339.107,119.258 338.908 C 119.018 338.709,117.782 338.285,116.512 337.966 C 113.774 337.279,110.792 336.208,109.066 335.292 C 108.381 334.928,107.612 334.630,107.358 334.630 C 107.103 334.630,106.087 334.261,105.101 333.810 C 104.115 333.359,102.519 332.632,101.556 332.196 C 99.705 331.357,99.510 331.255,97.126 329.868 C 95.599 328.979,95.299 328.796,93.191 327.462 C 89.326 325.017,88.863 324.691,84.144 321.095 C 81.373 318.984,72.238 310.562,71.751 309.670 C 71.558 309.317,70.476 307.978,69.345 306.693 C 67.118 304.162,66.574 303.436,63.162 298.444 C 60.698 294.837,59.816 293.370,59.128 291.732 C 58.881 291.143,58.541 290.661,58.373 290.661 C 58.004 290.661,56.186 286.995,55.824 285.522 C 55.682 284.942,55.320 284.264,55.020 284.015 C 54.720 283.766,54.469 283.365,54.463 283.124 C 54.456 282.882,54.020 281.809,53.493 280.739 C 52.967 279.669,52.535 278.558,52.533 278.269 C 52.531 277.980,52.286 277.192,51.990 276.518 C 50.976 274.214,49.759 270.559,49.174 268.061 C 48.852 266.688,48.234 264.076,47.800 262.257 C 47.367 260.438,46.840 257.724,46.630 256.226 C 46.083 252.318,46.410 230.097,47.038 228.599 C 47.306 227.957,47.683 226.056,47.876 224.374 C 48.068 222.692,48.402 221.102,48.618 220.841 C 48.834 220.581,49.179 219.187,49.383 217.745 C 49.587 216.302,49.928 214.913,50.140 214.657 C 50.352 214.401,50.745 213.324,51.012 212.262 C 51.279 211.201,51.729 209.890,52.011 209.349 C 52.293 208.808,52.525 208.191,52.526 207.977 C 52.529 207.014,57.216 196.580,58.206 195.331 C 58.461 195.010,59.489 193.184,60.491 191.273 C 61.492 189.363,62.662 187.349,63.089 186.799 C 63.516 186.248,64.598 184.817,65.493 183.619 C 66.388 182.421,67.821 180.529,68.677 179.416 C 70.274 177.339,75.724 171.797,79.681 168.225 C 81.647 166.452,82.642 165.642,85.798 163.250 C 86.226 162.926,87.451 161.995,88.521 161.181 C 90.372 159.774,94.415 157.198,94.772 157.198 C 94.864 157.198,95.772 156.612,96.789 155.895 C 97.806 155.179,100.302 153.752,102.335 152.725 C 104.368 151.699,106.732 150.505,107.588 150.073 C 108.444 149.642,109.407 149.074,109.728 148.812 C 110.049 148.550,110.924 148.210,111.673 148.056 C 115.035 147.365,117.364 144.697,117.688 141.164 C 118.789 129.186,118.302 127.508,114.202 129.156 C 113.774 129.328,112.724 129.651,111.868 129.875 C 109.591 130.469,103.339 132.682,99.805 134.144 C 94.926 136.163,86.387 140.572,84.536 142.028 C 83.995 142.454,83.322 142.802,83.041 142.802 C 82.759 142.802,82.389 143.032,82.218 143.313 C 82.047 143.594,80.856 144.459,79.572 145.235 C 73.069 149.165,60.170 161.525,53.021 170.676 C 50.721 173.620,48.658 176.488,48.649 176.755 C 48.643 176.918,48.061 177.881,47.356 178.895 C 46.651 179.909,45.581 181.702,44.978 182.879 C 44.375 184.056,43.652 185.282,43.372 185.603 C 43.092 185.924,42.732 186.712,42.573 187.354 C 42.414 187.996,42.000 188.959,41.652 189.494 C 40.526 191.225,40.080 192.005,39.648 192.996 C 39.415 193.531,38.901 194.669,38.507 195.525 C 37.665 197.354,36.533 200.498,34.443 206.809 C 33.245 210.425,31.621 217.092,31.172 220.233 C 30.973 221.625,30.638 223.206,30.428 223.747 C 30.217 224.289,29.920 226.303,29.766 228.222 C 29.612 230.142,29.243 232.668,28.946 233.837 C 28.313 236.321,28.239 248.734,28.837 252.140 C 29.044 253.317,29.438 256.294,29.713 258.755 C 29.988 261.216,30.419 263.612,30.671 264.079 C 30.922 264.547,31.128 265.429,31.128 266.041 C 31.128 266.652,31.409 268.195,31.753 269.471 C 32.097 270.746,32.688 273.103,33.067 274.708 C 33.881 278.155,36.003 283.929,37.857 287.743 C 38.585 289.241,39.291 290.919,39.426 291.472 C 39.652 292.398,40.447 293.895,42.686 297.607 C 43.157 298.388,43.653 299.290,43.787 299.611 C 44.328 300.899,44.805 301.822,45.701 303.307 C 46.217 304.163,46.938 305.389,47.304 306.031 C 47.669 306.673,48.078 307.286,48.213 307.393 C 48.347 307.500,49.329 308.898,50.396 310.500 C 52.621 313.843,55.538 317.560,56.293 318.015 C 56.577 318.187,56.809 318.518,56.809 318.752 C 56.809 319.779,65.690 329.172,68.677 331.303 C 69.533 331.914,70.630 332.820,71.114 333.316 C 72.388 334.621,82.300 342.023,82.774 342.023 C 82.993 342.023,83.377 342.269,83.626 342.569 C 83.875 342.869,84.519 343.225,85.058 343.360 C 85.597 343.495,86.869 344.190,87.885 344.905 C 88.901 345.619,90.161 346.337,90.683 346.501 C 91.206 346.665,92.052 347.126,92.562 347.524 C 93.073 347.923,93.708 348.249,93.974 348.249 C 94.240 348.249,94.666 348.500,94.921 348.808 C 95.176 349.115,95.917 349.483,96.567 349.626 C 97.217 349.769,98.323 350.275,99.025 350.751 C 100.504 351.755,105.463 353.770,108.560 354.625 C 111.919 355.552,115.666 356.693,116.751 357.119 C 117.296 357.334,118.960 357.625,120.447 357.767 C 121.935 357.910,124.290 358.321,125.681 358.682 C 128.859 359.507,159.605 359.612,163.619 358.812 C 164.903 358.556,167.475 358.182,169.335 357.982 C 171.195 357.781,173.361 357.348,174.149 357.019 C 174.937 356.690,175.926 356.420,176.347 356.420 C 176.768 356.420,178.629 355.918,180.482 355.305 C 182.336 354.691,184.892 353.884,186.162 353.511 C 188.123 352.935,191.092 351.578,193.385 350.209 C 194.298 349.664,197.368 348.350,198.444 348.044 C 198.979 347.892,199.679 347.554,200.000 347.293 C 200.321 347.032,202.597 345.671,205.058 344.270 C 211.437 340.638,215.557 337.740,222.154 332.244 C 226.986 328.219,230.569 324.659,233.852 320.623 C 234.983 319.232,236.030 318.006,236.177 317.899 C 236.571 317.614,241.634 310.909,241.634 310.673 C 241.634 310.563,242.335 309.525,243.191 308.366 C 244.047 307.207,244.747 306.098,244.747 305.901 C 244.747 305.704,245.020 305.316,245.353 305.040 C 245.687 304.763,246.211 303.997,246.519 303.338 C 246.826 302.679,247.453 301.527,247.910 300.778 C 248.675 299.526,250.377 296.455,251.898 293.580 C 252.238 292.938,252.968 291.362,253.519 290.078 C 254.071 288.794,254.705 287.411,254.926 287.006 C 255.607 285.762,256.858 282.013,257.277 279.961 C 257.496 278.891,258.005 277.296,258.409 276.417 C 258.813 275.537,259.144 274.393,259.144 273.874 C 259.144 273.355,259.494 271.934,259.922 270.716 C 260.350 269.498,260.700 267.978,260.700 267.338 C 260.700 266.699,260.952 265.425,261.260 264.508 C 261.568 263.591,262.013 261.053,262.250 258.869 C 262.487 256.684,262.858 253.883,263.074 252.643 C 264.036 247.116,264.330 128.717,263.388 126.186 C 262.527 123.874,262.575 123.879,240.272 124.228 C 179.906 125.173,155.975 125.050,154.470 123.788 C 153.482 122.959,153.885 121.313,156.626 114.981 C 158.430 110.813,159.229 109.049,159.624 108.366 C 161.308 105.453,162.244 103.637,162.250 103.269 C 162.259 102.736,166.517 95.567,169.361 91.297 C 173.180 85.561,183.546 74.526,189.029 70.356 C 190.974 68.877,196.115 65.370,196.338 65.370 C 196.407 65.370,197.066 64.961,197.802 64.461 C 199.593 63.246,210.735 57.762,212.451 57.252 C 213.200 57.029,216.440 55.953,219.650 54.862 C 231.866 50.707,252.236 48.358,260.700 50.128 C 261.877 50.374,264.477 50.756,266.477 50.977 C 270.028 51.368,274.302 52.347,277.821 53.575 C 278.784 53.911,280.185 54.326,280.934 54.497 C 281.683 54.668,283.521 55.275,285.019 55.846 C 286.518 56.418,288.371 57.120,289.139 57.407 C 294.556 59.433,309.489 68.263,311.984 70.914 C 312.336 71.289,312.784 71.595,312.979 71.595 C 313.534 71.595,324.352 82.309,327.124 85.603 C 329.282 88.168,334.630 95.774,334.630 96.278 C 334.630 96.380,335.041 97.069,335.543 97.809 C 336.045 98.549,337.284 100.789,338.295 102.787 C 339.307 104.785,340.269 106.683,340.434 107.004 C 341.783 109.629,343.969 114.685,343.969 115.179 C 343.969 115.418,344.297 116.435,344.699 117.438 C 349.044 128.293,350.666 149.746,348.279 164.786 C 348.075 166.070,347.716 168.434,347.480 170.039 C 347.060 172.895,346.834 173.801,344.859 180.545 C 343.922 183.743,342.295 188.211,341.609 189.467 C 341.426 189.803,340.720 191.391,340.041 192.996 C 339.362 194.601,338.567 196.260,338.275 196.682 C 337.982 197.104,337.743 197.717,337.743 198.044 C 337.742 198.580,329.907 210.789,329.251 211.276 C 329.101 211.387,328.320 212.354,327.517 213.424 C 323.561 218.691,311.120 228.795,301.751 234.352 C 301.323 234.606,299.883 235.473,298.550 236.278 C 297.218 237.084,296.028 237.743,295.905 237.743 C 295.782 237.743,294.653 238.427,293.395 239.262 C 292.137 240.098,290.526 240.903,289.814 241.052 C 289.103 241.200,288.164 241.547,287.728 241.822 C 287.291 242.098,285.945 242.529,284.737 242.779 C 280.302 243.700,278.710 246.273,277.622 254.280 C 277.476 255.350,277.021 257.347,276.611 258.717 C 275.519 262.359,277.102 264.240,280.312 263.115 C 280.975 262.883,282.218 262.569,283.074 262.418 C 283.930 262.267,285.241 261.818,285.986 261.422 C 286.732 261.025,287.661 260.700,288.051 260.700 C 288.440 260.700,289.493 260.368,290.391 259.962 C 291.289 259.557,293.074 258.783,294.358 258.243 C 295.642 257.704,297.218 256.986,297.860 256.649 C 298.502 256.312,299.222 256.035,299.460 256.034 C 300.044 256.030,304.491 253.909,306.420 252.715 C 307.276 252.184,308.502 251.479,309.144 251.146 C 326.646 242.087,348.385 218.227,356.633 199.027 C 357.184 197.743,357.782 196.418,357.960 196.081 C 358.139 195.745,358.762 194.257,359.346 192.774 C 359.929 191.291,360.636 189.553,360.918 188.911 C 368.535 171.551,370.213 141.621,364.603 123.152 C 364.213 121.868,363.498 119.504,363.013 117.899 C 362.114 114.921,359.312 107.690,357.953 104.838 C 357.538 103.968,357.198 103.079,357.198 102.863 C 357.198 102.647,355.695 99.506,353.858 95.885 C 346.723 81.823,340.793 73.648,330.546 63.750 C 328.405 61.682,326.391 59.736,326.070 59.425 C 324.486 57.892,316.973 52.140,316.554 52.140 C 316.439 52.140,315.439 51.483,314.333 50.681 C 311.699 48.770,308.926 47.189,303.696 44.617 C 299.327 42.467,298.116 41.898,292.996 39.585 C 289.603 38.051,280.902 35.213,277.812 34.632 C 276.640 34.411,275.156 34.061,274.514 33.854 C 269.259 32.158,245.200 30.765,238.716 31.781 M262.186 33.076 C 266.485 33.506,270.431 34.020,270.955 34.220 C 271.480 34.419,273.020 34.784,274.378 35.030 C 278.308 35.743,288.220 38.706,291.829 40.247 C 297.719 42.763,305.493 46.504,307.843 47.955 C 308.626 48.438,310.249 49.405,311.450 50.105 C 312.651 50.805,313.981 51.724,314.405 52.148 C 314.828 52.572,315.335 52.918,315.531 52.918 C 318.615 52.918,338.416 72.332,343.380 80.222 C 344.025 81.247,345.550 83.546,346.768 85.331 C 349.153 88.825,356.029 101.921,356.818 104.475 C 357.083 105.331,357.432 106.206,357.594 106.420 C 357.901 106.825,359.422 110.590,360.503 113.619 C 360.847 114.582,361.712 117.383,362.426 119.844 C 363.140 122.305,363.992 125.195,364.319 126.265 C 367.864 137.851,367.606 162.833,363.800 176.459 C 361.607 184.308,358.867 191.977,356.447 197.037 C 355.820 198.346,355.184 199.854,355.033 200.389 C 354.881 200.924,354.284 202.062,353.705 202.918 C 353.126 203.774,352.000 205.613,351.204 207.004 C 346.530 215.164,340.460 223.206,332.773 231.424 C 329.921 234.472,322.224 241.547,320.394 242.802 C 312.978 247.886,310.253 249.508,302.140 253.666 C 298.867 255.343,298.027 255.722,294.588 257.070 C 293.858 257.356,292.339 258.026,291.212 258.559 C 285.893 261.076,279.455 262.539,277.965 261.570 C 277.529 261.287,277.579 260.936,279.581 250.097 C 280.419 245.562,281.443 244.448,285.798 243.337 C 290.715 242.083,292.483 241.238,300.778 236.175 C 316.275 226.718,330.245 214.043,334.617 205.474 C 335.049 204.628,336.104 202.933,336.962 201.709 C 337.820 200.484,338.521 199.318,338.521 199.118 C 338.521 198.918,339.222 197.281,340.078 195.479 C 340.934 193.677,341.634 191.983,341.634 191.713 C 341.634 191.444,341.872 190.878,342.163 190.456 C 342.453 190.034,342.914 188.988,343.186 188.132 C 343.458 187.276,343.818 186.401,343.984 186.187 C 344.607 185.386,347.249 176.705,348.068 172.763 C 352.091 153.415,350.818 126.980,345.353 116.342 C 345.078 115.807,344.736 114.880,344.593 114.282 C 344.012 111.842,336.376 96.489,334.104 93.191 C 329.492 86.497,320.198 76.279,314.591 71.740 C 313.949 71.220,313.173 70.581,312.866 70.320 C 310.814 68.571,304.635 64.104,303.539 63.578 C 302.810 63.227,301.426 62.442,300.463 61.831 C 299.501 61.221,298.104 60.520,297.358 60.274 C 296.613 60.028,295.407 59.422,294.678 58.928 C 293.950 58.434,292.529 57.739,291.521 57.385 C 290.513 57.030,289.357 56.563,288.951 56.347 C 286.398 54.986,273.590 50.903,270.233 50.380 C 268.307 50.080,265.681 49.648,264.397 49.419 C 255.215 47.785,234.180 49.115,225.097 51.904 C 221.190 53.104,218.020 54.207,214.777 55.493 C 212.954 56.217,211.310 56.809,211.125 56.809 C 210.661 56.809,200.216 61.788,198.249 62.946 C 194.763 64.999,188.779 69.185,187.549 70.430 C 187.442 70.539,186.216 71.581,184.825 72.748 C 177.780 78.653,169.347 88.714,164.592 96.887 C 163.658 98.492,162.690 100.068,162.439 100.389 C 162.189 100.710,160.885 103.337,159.542 106.226 C 155.837 114.193,155.253 115.492,155.253 115.768 C 155.253 115.908,154.699 117.188,154.022 118.614 C 152.618 121.574,152.406 123.778,153.427 124.800 C 154.099 125.472,225.600 125.861,252.558 125.339 C 260.608 125.183,261.428 125.319,262.325 126.954 C 262.690 127.619,262.836 138.653,262.951 174.319 C 263.141 233.155,262.562 254.321,260.522 263.230 C 260.179 264.728,259.539 267.617,259.101 269.650 C 258.662 271.683,258.123 273.872,257.902 274.514 C 257.682 275.156,257.268 276.732,256.982 278.016 C 256.135 281.821,254.960 284.696,251.256 292.023 C 250.391 293.735,249.431 295.661,249.123 296.304 C 247.289 300.124,246.857 300.983,246.588 301.347 C 245.632 302.640,243.982 305.298,243.976 305.556 C 243.972 305.723,243.312 306.721,242.510 307.775 C 241.707 308.828,240.175 310.854,239.105 312.276 C 229.702 324.775,222.428 331.656,209.922 339.882 C 201.422 345.473,198.082 347.471,197.232 347.471 C 196.817 347.471,192.823 349.210,191.829 349.824 C 190.245 350.801,186.423 352.450,185.214 352.677 C 184.465 352.818,181.839 353.547,179.377 354.296 C 176.916 355.045,173.765 355.997,172.374 356.410 C 170.982 356.823,167.831 357.343,165.370 357.566 C 162.909 357.788,160.019 358.136,158.949 358.339 C 155.754 358.946,132.170 358.839,129.177 358.204 C 127.782 357.908,125.593 357.551,124.313 357.410 C 121.408 357.091,114.304 355.361,112.910 354.634 C 112.337 354.335,111.584 354.089,111.236 354.088 C 110.269 354.084,104.882 352.256,103.231 351.371 C 102.423 350.938,101.525 350.584,101.234 350.584 C 100.944 350.584,100.261 350.233,99.717 349.805 C 99.173 349.377,98.440 349.027,98.089 349.027 C 97.737 349.027,97.104 348.790,96.682 348.500 C 96.260 348.211,94.776 347.473,93.385 346.861 C 91.994 346.249,90.068 345.216,89.105 344.564 C 88.142 343.913,86.741 343.067,85.992 342.686 C 83.945 341.642,83.184 341.164,81.499 339.866 C 79.900 338.635,79.427 338.304,75.875 335.929 C 74.698 335.143,73.560 334.305,73.346 334.069 C 73.132 333.832,71.642 332.571,70.034 331.266 C 54.388 318.572,38.119 292.117,33.606 272.032 C 33.299 270.667,32.899 269.266,32.717 268.919 C 32.534 268.572,32.266 267.325,32.120 266.148 C 31.974 264.971,31.602 263.100,31.293 261.990 C 30.459 258.990,29.408 248.708,29.392 243.385 C 29.360 233.149,31.988 218.067,35.797 206.615 C 36.189 205.438,36.802 203.512,37.159 202.335 C 38.328 198.489,42.031 189.747,43.586 187.160 C 43.779 186.839,44.551 185.509,45.300 184.204 C 53.537 169.873,66.414 155.590,79.144 146.667 C 80.192 145.932,81.730 144.849,82.562 144.261 C 83.394 143.672,84.148 143.191,84.238 143.191 C 84.328 143.191,85.029 142.765,85.796 142.244 C 88.201 140.612,103.282 133.481,104.394 133.450 C 104.652 133.443,105.564 133.098,106.420 132.685 C 107.276 132.271,108.242 131.927,108.566 131.920 C 108.890 131.913,109.788 131.568,110.561 131.153 C 112.459 130.136,116.409 129.687,117.017 130.420 C 117.800 131.363,117.062 141.420,116.044 143.687 C 115.237 145.484,112.388 147.454,110.576 147.467 C 110.117 147.470,103.116 151.030,102.140 151.755 C 101.926 151.915,101.313 152.178,100.778 152.341 C 100.243 152.504,97.879 153.902,95.525 155.447 C 93.171 156.992,90.842 158.467,90.350 158.725 C 82.148 163.010,62.082 183.690,60.117 189.882 C 59.967 190.355,59.437 191.341,58.940 192.074 C 58.442 192.807,57.663 194.146,57.209 195.050 C 56.754 195.953,56.215 196.955,56.012 197.276 C 55.808 197.597,55.467 198.298,55.254 198.833 C 55.040 199.368,54.701 200.068,54.499 200.389 C 52.868 202.989,48.710 215.105,47.689 220.233 C 47.327 222.053,46.780 224.767,46.473 226.265 C 44.863 234.124,44.991 257.048,46.675 262.414 C 46.882 263.077,47.525 265.632,48.102 268.093 C 49.134 272.492,51.234 278.463,53.098 282.296 C 53.618 283.366,54.501 285.204,55.059 286.381 C 55.616 287.558,56.494 289.222,57.009 290.078 C 57.524 290.934,58.211 292.160,58.537 292.802 C 59.225 294.159,59.429 294.490,62.151 298.638 C 67.558 306.882,72.242 312.094,81.264 319.905 C 90.130 327.581,104.771 335.828,114.397 338.570 C 122.249 340.806,124.221 341.262,127.787 341.667 C 129.946 341.912,132.237 342.281,132.879 342.487 C 136.184 343.548,154.521 343.533,158.366 342.467 C 159.115 342.259,160.953 341.974,162.451 341.832 C 169.272 341.189,178.876 338.289,186.965 334.430 C 187.607 334.123,188.570 333.693,189.105 333.474 C 189.640 333.255,190.340 332.910,190.661 332.707 C 190.982 332.504,192.558 331.603,194.163 330.705 C 197.921 328.603,207.574 322.192,209.339 320.628 C 210.088 319.963,212.332 317.983,214.326 316.227 C 220.204 311.051,227.357 302.284,232.178 294.346 C 233.782 291.705,236.562 286.700,237.251 285.214 C 237.697 284.251,238.516 282.483,239.070 281.285 C 239.624 280.088,240.078 278.953,240.078 278.764 C 240.078 278.444,240.734 276.664,242.436 272.371 C 244.226 267.854,243.495 263.528,241.280 265.533 C 240.672 266.083,235.269 266.167,188.940 266.347 C 136.459 266.550,134.612 266.509,134.081 265.124 C 133.021 262.361,133.505 157.153,134.643 143.191 C 135.475 132.978,138.213 117.543,139.678 114.805 C 139.898 114.395,140.078 113.789,140.078 113.458 C 140.078 112.175,144.280 102.221,147.403 96.109 C 150.375 90.291,152.144 87.343,155.481 82.645 C 156.105 81.768,157.217 80.192,157.953 79.144 C 168.607 63.972,186.202 49.651,203.307 42.228 C 211.080 38.855,222.956 35.045,225.765 35.024 C 226.132 35.022,227.182 34.766,228.099 34.456 C 229.683 33.921,234.931 33.341,243.969 32.702 C 250.979 32.206,254.125 32.271,262.186 33.076 M152.724 141.662 C 151.366 141.886,150.512 142.292,149.899 143.003 L 149.019 144.022 149.068 194.287 C 149.123 250.352,149.059 248.435,150.904 249.675 L 152.197 250.545 197.855 250.373 C 245.579 250.193,245.244 250.207,245.921 248.425 C 246.357 247.279,246.460 167.649,246.044 152.950 L 245.786 143.838 244.715 142.639 L 243.644 141.440 199.157 141.390 C 174.689 141.363,153.794 141.485,152.724 141.662 M243.091 142.663 C 245.060 143.178,245.091 144.089,245.124 203.356 C 245.148 245.568,245.096 248.110,244.192 248.729 C 243.152 249.442,151.408 249.064,151.036 248.346 C 150.705 247.707,150.155 145.710,150.476 144.315 C 150.755 143.101,152.604 142.620,157.782 142.417 C 164.334 142.159,242.022 142.383,243.091 142.663 " stroke="none" fill="#c99db6" fill-rule="evenodd"></path><path id="path4" d="M241.601 30.513 C 241.481 30.633,238.544 30.979,235.074 31.283 C 231.605 31.586,228.553 32.003,228.293 32.208 C 228.034 32.413,226.858 32.703,225.681 32.852 C 221.680 33.358,213.277 35.752,210.700 37.119 C 210.058 37.460,209.248 37.739,208.900 37.741 C 208.551 37.742,208.058 37.995,207.803 38.302 C 207.548 38.609,206.782 38.982,206.102 39.130 C 205.421 39.278,204.518 39.639,204.096 39.933 C 203.674 40.227,203.075 40.467,202.765 40.467 C 201.964 40.467,197.439 42.721,196.874 43.401 C 196.615 43.713,196.168 43.969,195.880 43.969 C 194.409 43.969,186.483 48.584,183.581 51.130 C 183.218 51.449,182.401 51.978,181.766 52.307 C 181.131 52.635,179.724 53.739,178.639 54.759 C 177.554 55.780,175.928 57.228,175.025 57.977 C 172.277 60.255,168.569 63.735,166.826 65.669 C 163.849 68.974,162.862 70.042,161.245 71.705 C 158.748 74.273,156.420 77.429,156.420 78.245 C 156.420 78.654,156.268 78.988,156.082 78.988 C 155.896 78.988,155.093 80.026,154.298 81.294 C 153.503 82.562,152.605 83.695,152.302 83.811 C 151.999 83.927,151.751 84.290,151.751 84.618 C 151.751 84.946,151.602 85.214,151.420 85.214 C 151.045 85.214,148.638 88.954,148.638 89.536 C 148.638 89.744,148.325 90.389,147.942 90.969 C 145.901 94.059,142.584 100.965,142.250 102.821 C 142.106 103.624,141.834 104.280,141.647 104.280 C 141.459 104.280,141.094 104.937,140.835 105.739 C 140.577 106.542,140.240 107.374,140.087 107.588 C 139.934 107.802,139.242 109.728,138.550 111.868 C 137.858 114.008,137.062 116.284,136.780 116.926 C 136.499 117.568,135.804 120.457,135.236 123.346 C 134.667 126.235,134.029 129.125,133.818 129.767 C 133.606 130.409,133.261 132.947,133.051 135.409 C 132.841 137.870,132.493 141.547,132.277 143.580 C 131.030 155.349,130.847 263.722,132.070 266.088 C 133.543 268.937,127.918 268.677,188.173 268.677 C 246.395 268.677,242.975 268.554,241.427 270.600 C 241.113 271.015,240.851 271.715,240.844 272.156 C 240.837 272.597,240.401 273.833,239.875 274.903 C 239.348 275.973,238.916 277.133,238.914 277.482 C 238.912 277.830,238.659 278.323,238.352 278.578 C 238.045 278.833,237.683 279.543,237.549 280.156 C 237.414 280.768,237.053 281.478,236.745 281.733 C 236.438 281.988,236.184 282.481,236.181 282.830 C 236.178 283.178,235.927 283.901,235.624 284.436 C 235.321 284.971,234.492 286.547,233.782 287.938 C 233.071 289.329,232.354 290.527,232.187 290.600 C 232.020 290.674,231.307 291.900,230.603 293.324 C 228.871 296.829,227.625 298.833,227.179 298.833 C 226.975 298.833,226.630 299.344,226.412 299.969 C 226.194 300.594,225.765 301.201,225.459 301.318 C 225.153 301.436,224.903 301.800,224.903 302.128 C 224.903 302.456,224.759 302.724,224.583 302.724 C 224.408 302.724,223.385 303.818,222.311 305.156 C 219.718 308.383,218.895 309.330,216.245 312.125 C 215.015 313.423,214.008 314.645,214.008 314.840 C 214.008 315.035,213.570 315.361,213.035 315.564 C 212.500 315.768,212.062 316.158,212.062 316.432 C 212.062 316.706,211.581 317.146,210.992 317.409 C 210.056 317.827,208.440 319.077,206.128 321.173 C 205.754 321.512,205.341 321.790,205.210 321.790 C 204.748 321.790,201.167 324.260,201.167 324.579 C 201.167 324.757,200.906 324.903,200.587 324.903 C 200.268 324.903,199.788 325.253,199.521 325.681 C 199.253 326.109,198.828 326.459,198.574 326.459 C 198.321 326.459,197.594 326.897,196.958 327.432 C 196.322 327.967,195.548 328.405,195.237 328.405 C 194.926 328.405,194.268 328.755,193.774 329.183 C 193.281 329.611,192.636 329.961,192.341 329.961 C 192.046 329.961,191.708 330.213,191.590 330.521 C 191.471 330.829,190.820 331.201,190.143 331.348 C 189.465 331.495,188.298 331.927,187.549 332.308 C 184.719 333.748,182.576 334.630,181.910 334.630 C 181.531 334.630,180.674 334.962,180.007 335.367 C 179.340 335.772,178.184 336.232,177.438 336.390 C 176.692 336.549,175.729 336.899,175.298 337.168 C 174.866 337.438,173.638 337.779,172.568 337.926 C 171.498 338.073,170.272 338.415,169.844 338.686 C 169.416 338.958,167.840 339.303,166.342 339.455 C 164.844 339.606,163.110 339.983,162.489 340.293 C 161.867 340.603,160.467 340.864,159.376 340.874 C 158.285 340.884,155.029 341.105,152.140 341.365 C 148.073 341.731,145.701 341.735,141.634 341.382 C 138.745 341.131,134.843 340.910,132.963 340.891 C 130.558 340.866,129.268 340.675,128.611 340.244 C 128.069 339.889,126.402 339.541,124.636 339.414 C 122.964 339.294,121.375 339.021,121.105 338.808 C 120.836 338.595,119.435 338.080,117.993 337.663 C 116.550 337.247,114.518 336.661,113.476 336.362 C 112.435 336.063,111.385 335.659,111.142 335.465 C 110.517 334.965,100.818 331.128,100.179 331.128 C 99.888 331.128,99.510 330.910,99.338 330.642 C 99.007 330.125,97.501 329.188,95.428 328.212 C 94.732 327.884,94.163 327.443,94.163 327.232 C 94.163 327.021,93.926 326.848,93.637 326.848 C 93.347 326.848,92.637 326.411,92.060 325.875 C 91.483 325.340,90.757 324.903,90.447 324.903 C 89.921 324.903,89.313 324.442,87.340 322.550 C 86.905 322.132,86.363 321.790,86.136 321.790 C 85.909 321.790,85.407 321.440,85.019 321.012 C 84.632 320.584,84.091 320.233,83.818 320.233 C 83.545 320.233,83.210 319.883,83.074 319.455 C 82.938 319.027,82.618 318.677,82.363 318.677 C 82.108 318.677,81.681 318.327,81.413 317.899 C 81.146 317.471,80.769 317.121,80.576 317.121 C 80.057 317.121,71.595 308.737,71.595 308.222 C 71.595 307.980,71.333 307.782,71.012 307.782 C 70.691 307.782,70.428 307.521,70.428 307.202 C 70.428 306.883,70.078 306.403,69.650 306.135 C 69.222 305.868,68.872 305.435,68.872 305.173 C 68.872 304.911,68.521 304.509,68.093 304.280 C 67.665 304.051,67.315 303.620,67.315 303.321 C 67.315 303.023,66.684 302.110,65.913 301.293 C 65.142 300.475,64.244 299.289,63.917 298.657 C 63.590 298.026,63.083 297.269,62.790 296.976 C 62.497 296.682,62.257 296.201,62.257 295.906 C 62.257 295.611,62.038 295.229,61.770 295.058 C 61.503 294.887,60.969 294.134,60.584 293.385 C 59.124 290.547,58.702 289.883,58.360 289.883 C 58.165 289.883,57.818 289.183,57.588 288.327 C 57.357 287.471,57.022 286.770,56.844 286.770 C 56.666 286.770,56.412 286.096,56.280 285.273 C 56.148 284.449,55.711 283.354,55.308 282.841 C 54.906 282.327,54.455 281.350,54.306 280.669 C 54.157 279.988,53.784 279.223,53.477 278.968 C 53.170 278.713,52.918 278.037,52.918 277.467 C 52.918 276.896,52.578 275.762,52.163 274.947 C 51.747 274.132,51.292 272.913,51.152 272.238 C 51.011 271.564,50.678 270.661,50.412 270.233 C 50.146 269.805,49.821 268.532,49.689 267.405 C 49.558 266.277,49.186 264.876,48.862 264.292 C 48.539 263.708,48.095 261.665,47.877 259.752 C 47.660 257.840,47.287 256.089,47.049 255.861 C 46.453 255.290,46.772 258.041,47.790 262.257 C 48.229 264.076,48.852 266.688,49.174 268.061 C 49.759 270.559,50.976 274.214,51.990 276.518 C 52.286 277.192,52.531 277.980,52.533 278.269 C 52.535 278.558,52.967 279.669,53.493 280.739 C 54.020 281.809,54.456 282.882,54.463 283.124 C 54.469 283.365,54.720 283.766,55.020 284.015 C 55.320 284.264,55.682 284.942,55.824 285.522 C 56.186 286.995,58.004 290.661,58.373 290.661 C 58.541 290.661,58.881 291.143,59.128 291.732 C 59.816 293.370,60.698 294.837,63.162 298.444 C 66.574 303.436,67.118 304.162,69.345 306.693 C 70.476 307.978,71.558 309.317,71.751 309.670 C 72.238 310.562,81.373 318.984,84.144 321.095 C 88.863 324.691,89.326 325.017,93.191 327.462 C 95.299 328.796,95.599 328.979,97.126 329.868 C 99.510 331.255,99.705 331.357,101.556 332.196 C 102.519 332.632,104.115 333.359,105.101 333.810 C 106.087 334.261,107.103 334.630,107.358 334.630 C 107.612 334.630,108.381 334.928,109.066 335.292 C 110.792 336.208,113.774 337.279,116.512 337.966 C 117.782 338.285,119.018 338.709,119.258 338.908 C 119.498 339.107,121.260 339.527,123.174 339.841 C 125.088 340.154,127.529 340.589,128.599 340.806 C 135.726 342.253,148.758 342.782,155.058 341.881 C 157.412 341.545,160.564 341.094,162.062 340.879 C 169.606 339.797,178.773 337.076,185.798 333.835 C 188.920 332.394,191.669 331.017,193.191 330.132 C 194.047 329.634,195.447 328.862,196.304 328.418 C 198.739 327.152,199.696 326.560,199.955 326.159 C 200.087 325.955,201.595 324.853,203.307 323.711 C 211.261 318.403,218.513 311.515,224.401 303.674 C 226.374 301.047,226.684 300.653,227.315 299.974 C 229.300 297.835,239.296 279.388,239.302 277.850 C 239.304 277.513,239.653 276.712,240.078 276.070 C 240.503 275.428,240.852 274.550,240.853 274.119 C 240.855 273.688,241.206 272.681,241.634 271.883 C 242.787 269.732,242.727 266.750,241.537 267.073 C 239.933 267.509,136.500 267.714,134.905 267.284 C 133.857 267.002,133.314 266.586,133.034 265.849 C 132.310 263.945,132.816 147.693,133.578 140.856 C 134.483 132.733,135.277 127.379,135.970 124.724 C 136.303 123.448,136.576 122.075,136.576 121.671 C 136.576 120.641,138.071 115.578,138.741 114.337 C 139.048 113.769,139.300 113.013,139.300 112.658 C 139.300 111.963,139.971 110.217,143.270 102.335 C 145.831 96.216,150.568 87.813,154.454 82.490 C 155.314 81.313,156.671 79.387,157.470 78.210 C 158.269 77.033,159.042 75.982,159.189 75.875 C 159.335 75.768,160.237 74.630,161.192 73.346 C 164.218 69.281,175.660 58.175,180.737 54.376 C 185.372 50.908,187.984 49.037,188.803 48.598 C 190.876 47.487,194.423 45.548,196.498 44.393 C 197.675 43.737,198.901 43.089,199.222 42.952 C 199.543 42.815,200.714 42.287,201.824 41.779 C 202.934 41.272,204.046 40.856,204.293 40.856 C 204.541 40.856,205.209 40.603,205.777 40.295 C 206.345 39.986,207.947 39.271,209.339 38.705 C 210.730 38.140,212.393 37.437,213.035 37.143 C 224.972 31.678,263.398 29.626,274.531 33.859 C 275.015 34.043,276.435 34.380,277.686 34.609 C 280.521 35.126,289.680 38.083,292.802 39.489 C 304.166 44.605,310.491 47.893,314.333 50.681 C 315.439 51.483,316.439 52.140,316.554 52.140 C 316.973 52.140,324.486 57.892,326.070 59.425 C 326.391 59.736,328.405 61.682,330.546 63.750 C 340.793 73.648,346.723 81.823,353.858 95.885 C 355.695 99.506,357.198 102.647,357.198 102.863 C 357.198 103.079,357.538 103.968,357.953 104.838 C 359.312 107.690,362.114 114.921,363.013 117.899 C 363.498 119.504,364.213 121.868,364.603 123.152 C 370.213 141.621,368.535 171.551,360.918 188.911 C 360.636 189.553,359.929 191.291,359.346 192.774 C 358.762 194.257,358.139 195.745,357.960 196.081 C 357.782 196.418,357.184 197.743,356.633 199.027 C 350.249 213.889,334.888 232.784,319.811 244.319 C 317.277 246.259,311.738 249.804,309.144 251.146 C 308.502 251.479,307.276 252.184,306.420 252.715 C 304.491 253.909,300.044 256.030,299.460 256.034 C 299.222 256.035,298.502 256.312,297.860 256.649 C 297.218 256.986,295.642 257.704,294.358 258.243 C 293.074 258.783,291.289 259.557,290.391 259.962 C 289.493 260.368,288.440 260.700,288.051 260.700 C 287.661 260.700,286.732 261.025,285.986 261.422 C 285.241 261.818,283.930 262.267,283.074 262.418 C 282.218 262.569,280.975 262.883,280.312 263.115 C 277.102 264.240,275.519 262.359,276.611 258.717 C 277.021 257.347,277.476 255.350,277.622 254.280 C 278.710 246.273,280.302 243.700,284.737 242.779 C 285.945 242.529,287.291 242.098,287.728 241.822 C 288.164 241.547,289.103 241.200,289.814 241.052 C 290.526 240.903,292.137 240.098,293.395 239.262 C 294.653 238.427,295.782 237.743,295.905 237.743 C 296.028 237.743,297.218 237.084,298.550 236.278 C 299.883 235.473,301.323 234.606,301.751 234.352 C 311.120 228.795,323.561 218.691,327.517 213.424 C 328.320 212.354,329.101 211.387,329.251 211.276 C 329.907 210.789,337.742 198.580,337.743 198.044 C 337.743 197.717,337.982 197.104,338.275 196.682 C 338.567 196.260,339.362 194.601,340.041 192.996 C 340.720 191.391,341.426 189.803,341.609 189.467 C 342.295 188.211,343.922 183.743,344.859 180.545 C 346.834 173.801,347.060 172.895,347.480 170.039 C 347.716 168.434,348.075 166.070,348.279 164.786 C 350.666 149.746,349.044 128.293,344.699 117.438 C 344.297 116.435,343.969 115.418,343.969 115.179 C 343.969 114.685,341.783 109.629,340.434 107.004 C 340.269 106.683,339.307 104.785,338.295 102.787 C 337.284 100.789,336.045 98.549,335.543 97.809 C 335.041 97.069,334.630 96.380,334.630 96.278 C 334.630 95.774,329.282 88.168,327.124 85.603 C 324.352 82.309,313.534 71.595,312.979 71.595 C 312.784 71.595,312.336 71.289,311.984 70.914 C 309.489 68.263,294.556 59.433,289.139 57.407 C 288.371 57.120,286.518 56.418,285.019 55.846 C 283.521 55.275,281.683 54.668,280.934 54.497 C 280.185 54.326,278.784 53.911,277.821 53.575 C 274.302 52.347,270.028 51.368,266.477 50.977 C 264.477 50.756,261.877 50.374,260.700 50.128 C 252.236 48.358,231.866 50.707,219.650 54.862 C 216.440 55.953,213.200 57.029,212.451 57.252 C 210.735 57.762,199.593 63.246,197.802 64.461 C 197.066 64.961,196.407 65.370,196.338 65.370 C 196.115 65.370,190.974 68.877,189.029 70.356 C 183.546 74.526,173.180 85.561,169.361 91.297 C 166.517 95.567,162.259 102.736,162.250 103.269 C 162.244 103.637,161.308 105.453,159.624 108.366 C 159.377 108.794,158.715 110.195,158.153 111.479 C 153.767 121.500,153.361 122.857,154.470 123.788 C 155.975 125.050,179.906 125.173,240.272 124.228 C 262.575 123.879,262.527 123.874,263.388 126.186 C 264.330 128.717,264.036 247.116,263.074 252.643 C 262.858 253.883,262.487 256.684,262.250 258.869 C 262.013 261.053,261.568 263.591,261.260 264.508 C 260.952 265.425,260.700 266.699,260.700 267.338 C 260.700 267.978,260.350 269.498,259.922 270.716 C 259.494 271.934,259.144 273.377,259.144 273.922 C 259.144 274.468,258.794 275.568,258.366 276.366 C 257.383 278.199,257.361 278.979,258.323 277.870 C 258.728 277.404,259.176 276.238,259.320 275.279 C 259.464 274.321,259.825 273.068,260.122 272.495 C 260.419 271.922,260.773 270.479,260.908 269.287 C 261.043 268.096,261.380 266.595,261.657 265.953 C 261.935 265.311,262.278 263.298,262.421 261.480 C 262.563 259.662,262.927 257.447,263.228 256.559 C 264.035 254.184,264.770 227.463,264.779 200.195 C 264.789 169.161,264.257 126.654,263.845 125.570 C 263.023 123.407,266.462 123.529,210.725 123.686 C 156.542 123.840,155.016 123.805,155.442 122.430 C 155.584 121.971,155.939 120.632,156.230 119.455 C 157.257 115.303,157.854 113.903,161.618 106.809 C 161.959 106.167,162.735 104.591,163.343 103.307 C 164.477 100.912,165.922 98.402,167.794 95.574 C 168.379 94.691,168.861 93.674,168.865 93.314 C 168.868 92.954,169.222 92.548,169.650 92.412 C 170.078 92.277,170.440 91.958,170.454 91.705 C 170.468 91.452,171.085 90.457,171.825 89.494 C 172.565 88.531,173.274 87.437,173.401 87.062 C 173.528 86.688,173.830 86.371,174.073 86.359 C 174.315 86.347,175.564 85.117,176.848 83.626 C 178.132 82.134,180.656 79.474,182.457 77.714 C 188.388 71.918,190.090 70.428,190.782 70.428 C 191.123 70.428,192.947 69.076,194.196 67.897 C 194.535 67.577,194.989 67.315,195.206 67.315 C 195.422 67.315,195.916 66.965,196.304 66.537 C 196.691 66.109,197.243 65.759,197.531 65.759 C 197.819 65.759,198.369 65.452,198.753 65.078 C 199.499 64.352,206.617 60.700,207.287 60.700 C 207.507 60.700,207.905 60.438,208.171 60.117 C 208.438 59.796,208.961 59.533,209.334 59.533 C 209.707 59.533,210.429 59.208,210.940 58.811 C 211.450 58.414,212.568 57.961,213.424 57.803 C 214.280 57.646,215.715 57.183,216.613 56.774 C 217.511 56.365,218.474 56.031,218.753 56.031 C 219.032 56.031,220.311 55.695,221.595 55.285 C 228.142 53.191,234.204 51.862,238.665 51.542 C 239.977 51.448,243.410 51.175,246.294 50.937 C 252.603 50.415,262.514 50.976,267.899 52.161 C 269.825 52.584,271.802 52.928,272.292 52.925 C 272.782 52.921,273.832 53.244,274.626 53.643 C 275.420 54.041,277.965 54.846,280.281 55.431 C 282.597 56.016,284.961 56.740,285.534 57.039 C 286.107 57.338,286.839 57.582,287.160 57.582 C 288.195 57.580,300.385 63.899,301.621 65.078 C 302.014 65.452,302.570 65.759,302.858 65.759 C 303.146 65.759,303.698 66.109,304.086 66.537 C 304.473 66.965,304.944 67.315,305.132 67.315 C 305.649 67.315,311.284 71.228,311.284 71.587 C 311.284 71.759,311.733 72.013,312.282 72.151 C 313.565 72.473,327.140 86.367,328.320 88.565 C 328.594 89.076,328.988 89.494,329.195 89.494 C 329.402 89.494,329.572 89.734,329.572 90.027 C 329.572 90.320,330.272 91.439,331.128 92.515 C 331.984 93.590,332.685 94.640,332.685 94.848 C 332.685 95.056,333.014 95.644,333.416 96.155 C 333.817 96.666,334.720 98.178,335.421 99.515 C 336.121 100.852,336.829 101.946,336.994 101.946 C 337.158 101.946,337.405 102.459,337.543 103.086 C 337.680 103.713,338.040 104.431,338.342 104.681 C 338.643 104.932,339.004 105.746,339.144 106.490 C 339.284 107.235,339.623 107.930,339.897 108.036 C 340.172 108.141,340.513 108.696,340.655 109.269 C 340.797 109.842,341.233 110.661,341.622 111.089 C 342.012 111.518,342.419 112.568,342.527 113.424 C 342.635 114.280,343.339 116.732,344.090 118.872 C 344.841 121.012,345.629 123.638,345.841 124.708 C 346.053 125.778,346.410 127.179,346.634 127.821 C 348.318 132.641,349.030 149.913,347.892 158.314 C 347.446 161.602,347.082 164.897,347.082 165.635 C 347.082 166.818,346.623 169.206,345.189 175.486 C 344.439 178.771,343.529 181.905,342.971 183.133 C 342.664 183.807,342.412 184.685,342.412 185.084 C 342.412 185.483,342.074 186.441,341.660 187.213 C 341.246 187.985,340.448 189.734,339.887 191.098 C 338.301 194.957,336.103 199.306,335.127 200.516 C 334.640 201.121,334.241 201.847,334.241 202.128 C 334.241 202.410,333.979 202.741,333.658 202.864 C 333.337 202.988,333.071 203.313,333.068 203.587 C 333.065 203.861,332.450 204.961,331.701 206.031 C 330.952 207.101,329.740 208.852,329.006 209.922 C 327.434 212.217,320.562 219.304,317.510 221.779 C 316.333 222.733,314.663 224.182,313.799 224.998 C 312.185 226.522,308.729 229.008,307.004 229.886 C 305.320 230.743,304.308 231.372,303.602 232.001 C 303.226 232.337,301.845 233.153,300.533 233.816 C 299.221 234.480,297.930 235.284,297.664 235.604 C 297.398 235.925,296.984 236.187,296.742 236.188 C 296.501 236.189,294.579 237.240,292.471 238.523 C 290.363 239.806,288.350 240.857,287.996 240.857 C 287.643 240.858,286.781 241.208,286.080 241.636 C 285.379 242.063,284.274 242.412,283.623 242.412 C 280.407 242.412,277.842 245.778,277.246 250.778 C 277.093 252.062,276.793 253.325,276.580 253.585 C 276.367 253.845,276.026 255.404,275.821 257.050 C 275.617 258.695,275.304 260.321,275.125 260.663 C 274.907 261.081,275.116 261.778,275.767 262.796 L 276.732 264.309 279.514 264.094 C 281.044 263.976,282.821 263.603,283.463 263.265 C 284.105 262.927,284.981 262.646,285.409 262.640 C 285.837 262.634,286.625 262.286,287.160 261.868 C 287.695 261.449,288.705 261.103,289.405 261.098 C 290.105 261.093,292.118 260.408,293.880 259.575 C 295.641 258.742,298.311 257.622,299.812 257.087 C 301.314 256.552,304.116 255.197,306.038 254.075 C 307.960 252.954,310.015 251.784,310.603 251.476 C 311.192 251.168,311.673 250.767,311.673 250.585 C 311.673 250.404,312.286 250.053,313.035 249.805 C 313.784 249.558,314.397 249.185,314.397 248.977 C 314.397 248.768,314.922 248.415,315.564 248.191 C 316.206 247.967,316.732 247.647,316.732 247.480 C 316.732 247.313,317.237 246.967,317.854 246.711 C 318.472 246.455,319.632 245.646,320.432 244.913 C 321.233 244.180,322.034 243.580,322.213 243.580 C 323.829 243.580,338.596 228.728,342.308 223.369 C 343.114 222.205,344.343 220.629,345.037 219.867 C 345.732 219.106,346.301 218.367,346.302 218.226 C 346.303 218.085,347.053 217.035,347.969 215.892 C 350.416 212.839,351.227 211.563,353.482 207.211 C 354.327 205.581,355.246 204.058,355.525 203.827 C 355.803 203.596,356.032 203.122,356.034 202.773 C 356.035 202.425,356.384 201.615,356.809 200.973 C 357.235 200.331,357.584 199.351,357.585 198.796 C 357.586 198.240,357.938 197.469,358.366 197.082 C 358.794 196.694,359.144 196.064,359.144 195.680 C 359.144 195.297,359.582 194.160,360.117 193.153 C 360.652 192.147,361.089 191.109,361.089 190.846 C 361.089 190.583,361.330 190.168,361.625 189.924 C 361.919 189.679,362.273 188.770,362.412 187.903 C 362.550 187.036,362.906 185.945,363.201 185.478 C 363.497 185.012,363.863 183.842,364.014 182.879 C 364.166 181.916,364.451 180.929,364.647 180.685 C 364.844 180.441,365.262 179.008,365.576 177.501 C 365.890 175.993,366.299 174.354,366.485 173.859 C 366.670 173.363,366.949 171.907,367.105 170.623 C 367.261 169.339,367.678 167.237,368.032 165.953 C 369.000 162.444,368.992 135.758,368.021 132.879 C 367.661 131.809,367.180 129.883,366.953 128.599 C 366.409 125.520,365.209 121.002,364.679 120.034 C 364.446 119.609,364.081 118.560,363.867 117.704 C 363.172 114.916,362.229 112.330,360.390 108.171 C 359.964 107.208,359.496 105.895,359.350 105.253 C 359.203 104.611,358.855 103.823,358.576 103.502 C 358.297 103.181,357.941 102.481,357.785 101.946 C 357.512 101.013,356.977 99.827,353.308 92.023 C 352.402 90.097,350.977 87.558,350.141 86.381 C 348.232 83.695,346.341 80.963,344.486 78.210 C 343.692 77.033,342.770 75.780,342.436 75.425 C 342.102 75.070,341.479 74.318,341.051 73.753 C 339.611 71.852,336.117 67.900,335.761 67.769 C 335.567 67.698,335.409 67.412,335.409 67.133 C 335.409 66.855,334.530 65.863,333.457 64.928 C 332.383 63.994,330.170 61.947,328.538 60.379 C 326.907 58.811,324.940 57.123,324.167 56.627 C 323.395 56.131,322.331 55.313,321.804 54.808 C 321.277 54.304,320.551 53.716,320.191 53.502 C 318.726 52.631,314.883 49.977,313.424 48.830 C 312.568 48.156,311.255 47.290,310.506 46.904 C 306.663 44.928,304.615 43.969,304.238 43.969 C 304.008 43.969,303.374 43.619,302.830 43.191 C 302.286 42.763,301.538 42.412,301.167 42.412 C 300.797 42.412,300.076 42.097,299.566 41.710 C 298.635 41.006,294.142 38.911,293.562 38.911 C 293.391 38.911,292.976 38.681,292.638 38.400 C 292.300 38.119,290.447 37.400,288.521 36.802 C 286.595 36.203,284.669 35.551,284.241 35.353 C 283.064 34.807,277.926 33.459,275.292 33.004 C 274.008 32.783,272.344 32.352,271.595 32.046 C 269.006 30.991,242.479 29.635,241.601 30.513 M114.300 128.436 C 113.925 128.654,113.619 129.020,113.619 129.250 C 113.619 129.529,113.780 129.540,114.105 129.284 C 116.862 127.112,118.420 128.848,118.149 133.789 C 117.938 137.641,117.982 137.566,119.123 132.145 C 119.811 128.873,117.112 126.798,114.300 128.436 M108.755 130.286 C 108.113 130.677,106.763 131.110,105.756 131.248 C 104.749 131.385,103.263 131.853,102.454 132.286 C 101.646 132.719,100.719 133.075,100.395 133.076 C 100.071 133.078,99.280 133.427,98.638 133.852 C 97.996 134.277,97.116 134.626,96.682 134.628 C 96.248 134.629,95.548 134.868,95.125 135.159 C 94.703 135.449,93.132 136.346,91.634 137.151 C 87.378 139.439,87.315 139.477,86.607 140.186 C 86.238 140.555,85.605 140.856,85.200 140.856 C 84.795 140.856,84.276 141.206,84.047 141.634 C 83.818 142.062,83.292 142.412,82.879 142.412 C 82.466 142.412,81.949 142.748,81.729 143.159 C 81.509 143.570,80.791 144.024,80.133 144.168 C 79.474 144.313,78.841 144.677,78.726 144.978 C 78.610 145.279,78.264 145.525,77.957 145.525 C 77.483 145.525,76.222 146.474,72.179 149.874 C 71.842 150.157,70.456 151.440,69.098 152.724 C 67.741 154.008,64.684 156.879,62.304 159.104 C 59.924 161.329,57.977 163.380,57.977 163.662 C 57.977 163.944,57.626 164.362,57.198 164.591 C 56.770 164.821,56.420 165.183,56.420 165.396 C 56.420 165.610,55.807 166.398,55.058 167.147 C 54.309 167.896,53.696 168.652,53.696 168.828 C 53.696 169.004,52.909 169.958,51.946 170.949 C 50.982 171.940,50.195 173.008,50.195 173.321 C 50.195 173.635,49.974 174.031,49.704 174.202 C 49.133 174.565,47.082 177.646,47.082 178.141 C 47.082 178.327,46.732 178.796,46.304 179.183 C 45.875 179.570,45.525 180.099,45.525 180.358 C 45.525 180.617,45.198 181.246,44.798 181.757 C 44.398 182.267,43.949 183.239,43.801 183.917 C 43.653 184.595,43.302 185.237,43.021 185.345 C 42.741 185.453,42.396 186.151,42.256 186.896 C 42.117 187.642,41.744 188.351,41.429 188.472 C 41.114 188.593,40.856 189.037,40.856 189.459 C 40.856 189.881,40.683 190.333,40.472 190.464 C 40.261 190.594,39.461 192.049,38.695 193.697 C 37.929 195.345,37.067 197.130,36.780 197.665 C 36.493 198.200,36.132 199.339,35.978 200.195 C 35.823 201.051,35.460 202.189,35.169 202.724 C 34.389 204.161,33.450 206.913,32.914 209.339 C 32.653 210.516,32.244 211.940,32.005 212.505 C 31.766 213.069,31.387 214.733,31.164 216.201 C 30.940 217.670,30.497 220.010,30.178 221.401 C 29.860 222.792,29.616 224.893,29.637 226.070 L 29.674 228.210 29.955 226.028 C 30.109 224.828,30.363 223.640,30.519 223.388 C 30.674 223.136,30.966 221.755,31.168 220.317 C 31.614 217.127,33.223 210.493,34.443 206.809 C 36.533 200.498,37.665 197.354,38.507 195.525 C 38.901 194.669,39.415 193.531,39.648 192.996 C 40.080 192.005,40.526 191.225,41.652 189.494 C 42.000 188.959,42.414 187.996,42.573 187.354 C 42.732 186.712,43.092 185.924,43.372 185.603 C 43.652 185.282,44.375 184.056,44.978 182.879 C 45.581 181.702,46.651 179.909,47.356 178.895 C 48.061 177.881,48.643 176.918,48.649 176.755 C 48.658 176.488,50.721 173.620,53.021 170.676 C 60.170 161.525,73.069 149.165,79.572 145.235 C 80.856 144.459,82.047 143.594,82.218 143.313 C 82.389 143.032,82.759 142.802,83.041 142.802 C 83.322 142.802,83.995 142.454,84.536 142.028 C 85.749 141.074,89.352 139.087,93.969 136.825 C 99.011 134.356,105.931 131.531,107.011 131.502 C 108.153 131.471,111.943 129.604,110.895 129.589 C 110.360 129.581,109.397 129.895,108.755 130.286 M118.005 139.300 C 118.005 140.263,118.081 140.657,118.173 140.175 C 118.266 139.694,118.266 138.906,118.173 138.424 C 118.081 137.943,118.005 138.337,118.005 139.300 M117.510 142.420 C 117.510 144.281,114.946 147.083,112.485 147.911 C 111.649 148.192,111.728 148.220,112.947 148.078 C 114.958 147.842,117.899 144.768,117.899 142.900 C 117.899 142.204,117.811 141.634,117.704 141.634 C 117.597 141.634,117.510 141.988,117.510 142.420 M157.782 142.417 C 152.604 142.620,150.755 143.101,150.476 144.315 C 150.155 145.710,150.705 247.707,151.036 248.346 C 151.408 249.064,243.152 249.442,244.192 248.729 C 245.096 248.110,245.148 245.568,245.124 203.356 C 245.091 144.089,245.060 143.178,243.091 142.663 C 242.022 142.383,164.334 142.159,157.782 142.417 M243.823 143.693 C 244.165 144.035,244.290 245.972,243.950 246.941 C 243.646 247.807,242.751 247.823,195.215 247.825 C 165.508 247.826,152.996 247.701,152.330 247.398 L 151.390 246.969 151.384 195.956 C 151.378 142.017,151.314 143.940,153.123 143.472 C 154.394 143.143,243.490 143.360,243.823 143.693 M109.926 148.632 C 109.796 148.843,108.866 149.429,107.860 149.934 C 100.462 153.647,98.416 154.749,96.789 155.895 C 95.772 156.612,94.864 157.198,94.772 157.198 C 94.415 157.198,90.372 159.774,88.521 161.181 C 87.451 161.995,86.226 162.926,85.798 163.250 C 82.642 165.642,81.647 166.452,79.681 168.225 C 75.724 171.797,70.274 177.339,68.677 179.416 C 67.821 180.529,66.388 182.421,65.493 183.619 C 64.598 184.817,63.516 186.248,63.089 186.799 C 62.662 187.349,61.492 189.363,60.491 191.273 C 59.489 193.184,58.461 195.010,58.206 195.331 C 57.178 196.628,53.065 205.863,52.315 208.560 C 52.167 209.095,51.916 209.708,51.760 209.922 C 51.603 210.136,51.261 211.184,51.000 212.252 C 50.739 213.319,50.352 214.401,50.140 214.657 C 49.928 214.913,49.587 216.302,49.383 217.745 C 49.179 219.187,48.834 220.581,48.618 220.841 C 48.402 221.102,48.068 222.692,47.876 224.374 C 47.683 226.056,47.305 227.957,47.035 228.599 C 46.678 229.450,46.532 233.199,46.498 242.412 C 46.452 254.788,46.454 254.818,46.578 243.807 C 46.648 237.619,46.867 232.360,47.066 232.120 C 47.528 231.564,48.242 227.185,48.246 224.888 C 48.248 223.895,48.590 222.453,49.027 221.595 C 49.476 220.715,49.805 219.301,49.805 218.253 C 49.805 217.129,50.024 216.257,50.379 215.962 C 50.694 215.700,51.055 214.847,51.180 214.066 C 51.306 213.285,51.645 212.208,51.933 211.673 C 52.222 211.138,52.587 210.000,52.744 209.144 C 52.902 208.288,53.356 207.170,53.753 206.660 C 54.150 206.149,54.475 205.398,54.475 204.990 C 54.475 204.583,54.825 203.563,55.253 202.724 C 55.681 201.885,56.031 200.952,56.031 200.652 C 56.031 200.351,56.381 199.660,56.809 199.116 C 57.237 198.571,57.588 197.846,57.588 197.503 C 57.588 197.160,57.938 196.580,58.366 196.213 C 58.794 195.847,59.144 195.263,59.144 194.915 C 59.144 194.568,59.494 193.967,59.922 193.580 C 60.350 193.192,60.700 192.576,60.700 192.210 C 60.700 191.844,61.051 191.099,61.479 190.555 C 61.907 190.011,62.257 189.384,62.257 189.161 C 62.257 188.802,62.979 187.874,64.721 185.992 C 65.019 185.671,65.485 184.982,65.758 184.460 C 66.359 183.309,66.714 182.861,68.541 180.944 C 69.323 180.125,70.068 179.121,70.197 178.714 C 70.326 178.307,71.132 177.246,71.986 176.356 C 72.841 175.466,73.541 174.556,73.541 174.334 C 73.541 174.112,73.707 173.930,73.910 173.930 C 74.113 173.930,74.770 173.471,75.369 172.911 C 75.969 172.350,77.065 171.431,77.805 170.868 C 78.545 170.305,80.104 168.925,81.270 167.802 C 82.436 166.678,83.527 165.759,83.696 165.759 C 83.865 165.759,84.234 165.452,84.517 165.078 C 84.800 164.703,85.379 164.174,85.804 163.902 C 86.228 163.629,87.145 163.043,87.840 162.599 C 88.536 162.154,89.105 161.629,89.105 161.431 C 89.105 161.232,89.543 160.904,90.078 160.700 C 90.613 160.497,91.051 160.151,91.051 159.932 C 91.051 159.713,91.401 159.533,91.829 159.533 C 92.257 159.533,92.932 159.208,93.328 158.812 C 93.725 158.415,94.557 157.826,95.177 157.503 C 97.721 156.177,98.358 155.783,98.997 155.145 C 99.365 154.776,99.960 154.474,100.320 154.472 C 100.679 154.471,101.498 154.122,102.140 153.696 C 102.782 153.271,103.592 152.922,103.941 152.921 C 104.289 152.919,104.800 152.646,105.077 152.312 C 105.354 151.979,106.119 151.454,106.778 151.147 C 109.727 149.770,111.839 148.249,110.801 148.249 C 110.450 148.249,110.056 148.421,109.926 148.632 M28.794 230.350 C 27.881 233.696,27.960 254.445,28.894 256.615 L 29.564 258.171 29.399 256.226 C 29.308 255.156,29.060 253.317,28.848 252.140 C 28.201 248.555,28.309 236.423,29.014 233.614 C 29.348 232.279,29.567 230.517,29.500 229.698 L 29.377 228.210 28.794 230.350 M29.639 261.089 C 29.617 262.481,29.870 264.669,30.200 265.953 C 30.531 267.237,31.044 269.576,31.341 271.151 C 31.638 272.726,32.038 274.214,32.230 274.458 C 32.422 274.703,32.699 275.691,32.846 276.654 C 32.993 277.617,33.354 278.773,33.649 279.223 C 33.944 279.673,34.312 280.724,34.467 281.558 C 34.770 283.185,35.892 285.612,37.037 287.115 C 37.425 287.625,37.743 288.430,37.743 288.903 C 37.743 289.377,38.093 290.168,38.521 290.661 C 39.678 291.995,39.469 291.026,37.916 287.849 C 36.018 283.967,33.894 278.210,33.067 274.708 C 32.688 273.103,32.097 270.746,31.753 269.471 C 31.409 268.195,31.128 266.652,31.128 266.041 C 31.128 265.429,30.923 264.547,30.672 264.079 C 30.421 263.612,30.095 262.179,29.947 260.895 L 29.678 258.560 29.639 261.089 M257.127 280.934 C 256.702 282.513,255.362 286.209,254.926 287.006 C 254.705 287.411,254.071 288.794,253.519 290.078 C 252.968 291.362,252.238 292.938,251.898 293.580 C 250.377 296.455,248.675 299.526,247.910 300.778 C 247.453 301.527,246.826 302.679,246.519 303.338 C 246.211 303.997,245.687 304.763,245.353 305.040 C 245.020 305.316,244.747 305.704,244.747 305.901 C 244.747 306.098,244.047 307.207,243.191 308.366 C 242.335 309.525,241.634 310.563,241.634 310.673 C 241.634 310.909,236.571 317.614,236.177 317.899 C 236.030 318.006,234.983 319.232,233.852 320.623 C 227.041 328.997,216.102 337.981,205.058 344.270 C 202.597 345.671,200.321 347.032,200.000 347.293 C 199.679 347.554,198.979 347.892,198.444 348.044 C 197.333 348.360,194.256 349.684,193.385 350.220 C 191.215 351.557,186.883 353.396,184.280 354.085 C 182.589 354.533,180.873 355.077,180.466 355.295 C 180.059 355.513,178.641 355.937,177.314 356.238 C 175.988 356.539,173.945 357.054,172.775 357.381 C 171.605 357.709,169.822 357.977,168.812 357.977 C 167.803 357.977,166.484 358.164,165.881 358.394 C 165.279 358.623,162.772 358.955,160.311 359.131 L 155.837 359.452 161.284 359.316 C 167.246 359.168,170.798 358.838,171.401 358.378 C 171.615 358.214,172.751 357.958,173.925 357.808 C 175.100 357.659,176.588 357.300,177.233 357.012 C 177.877 356.724,179.105 356.371,179.961 356.227 C 180.817 356.083,181.780 355.741,182.101 355.467 C 182.422 355.193,183.549 354.856,184.605 354.719 C 185.661 354.582,186.889 354.231,187.335 353.940 C 187.780 353.648,188.722 353.282,189.429 353.127 C 190.136 352.972,190.804 352.609,190.915 352.322 C 191.025 352.034,191.608 351.690,192.210 351.558 C 192.812 351.426,193.612 350.977,193.989 350.562 C 194.365 350.146,195.177 349.805,195.792 349.805 C 196.408 349.805,197.008 349.554,197.126 349.246 C 197.245 348.938,197.896 348.567,198.573 348.422 C 199.251 348.277,200.119 347.829,200.502 347.425 C 200.884 347.022,201.543 346.693,201.964 346.693 C 202.386 346.693,203.031 346.342,203.398 345.914 C 203.764 345.486,204.352 345.136,204.703 345.136 C 205.055 345.136,205.788 344.786,206.332 344.358 C 206.876 343.930,207.444 343.580,207.595 343.580 C 208.056 343.580,211.673 341.133,211.673 340.821 C 211.673 340.660,212.210 340.411,212.867 340.267 C 213.523 340.122,214.152 339.764,214.265 339.471 C 214.378 339.178,215.417 338.309,216.575 337.540 C 218.631 336.176,221.104 334.193,223.628 331.886 C 224.317 331.255,224.979 330.739,225.097 330.739 C 225.440 330.739,232.296 323.791,232.296 323.443 C 232.296 323.271,232.602 322.842,232.977 322.491 C 235.260 320.347,242.023 311.775,242.023 311.026 C 242.023 310.740,242.208 310.506,242.433 310.506 C 242.658 310.506,243.020 309.995,243.238 309.370 C 243.456 308.745,243.862 308.146,244.141 308.039 C 244.419 307.932,244.769 307.360,244.917 306.768 C 245.066 306.175,245.446 305.501,245.762 305.270 C 246.371 304.825,247.071 303.719,248.049 301.654 C 248.379 300.958,248.802 300.389,248.990 300.389 C 249.178 300.389,249.446 299.934,249.586 299.377 C 249.726 298.821,250.146 297.902,250.519 297.335 C 251.647 295.623,252.125 294.795,252.574 293.774 C 252.809 293.239,253.159 292.539,253.352 292.218 C 253.544 291.897,253.890 291.196,254.121 290.661 C 254.351 290.126,254.853 289.076,255.236 288.327 C 255.620 287.578,256.060 286.352,256.215 285.603 C 256.370 284.854,256.752 283.838,257.065 283.344 C 257.378 282.851,257.578 281.888,257.511 281.204 C 257.394 280.022,257.375 280.008,257.127 280.934 M39.300 292.579 C 39.300 293.096,39.547 293.795,39.850 294.133 C 40.304 294.640,42.344 298.390,45.401 304.336 C 45.692 304.902,46.190 305.581,46.506 305.843 C 46.823 306.106,47.082 306.555,47.082 306.842 C 47.082 307.128,47.396 307.676,47.780 308.059 C 48.165 308.442,49.347 310.065,50.407 311.666 C 51.467 313.267,52.989 315.281,53.788 316.141 C 54.587 317.001,55.484 317.967,55.781 318.288 C 56.078 318.609,56.443 319.266,56.592 319.747 C 56.740 320.229,57.200 320.804,57.614 321.026 C 58.027 321.247,58.366 321.611,58.366 321.834 C 58.366 322.057,59.022 322.919,59.825 323.748 C 60.627 324.577,61.835 325.833,62.507 326.538 C 64.509 328.637,66.625 330.529,68.414 331.818 C 69.339 332.485,71.156 334.004,72.452 335.192 C 73.747 336.381,75.048 337.354,75.341 337.354 C 75.635 337.354,75.880 337.573,75.886 337.840 C 75.892 338.108,76.620 338.765,77.505 339.300 C 78.390 339.835,79.628 340.696,80.255 341.213 C 81.383 342.143,84.499 343.951,86.381 344.766 C 86.916 344.998,87.704 345.508,88.132 345.898 C 88.560 346.289,89.465 346.726,90.143 346.869 C 90.820 347.012,91.471 347.381,91.590 347.689 C 91.708 347.997,92.049 348.249,92.348 348.249 C 92.647 348.249,93.309 348.576,93.819 348.977 C 94.329 349.377,95.304 349.826,95.985 349.974 C 96.666 350.123,97.431 350.496,97.686 350.803 C 97.941 351.110,98.378 351.362,98.658 351.362 C 98.938 351.362,99.449 351.645,99.795 351.991 C 100.141 352.337,101.158 352.785,102.055 352.986 C 102.951 353.188,103.950 353.583,104.274 353.864 C 104.599 354.146,105.503 354.490,106.284 354.630 C 107.065 354.770,108.241 355.153,108.898 355.480 C 109.555 355.808,110.755 356.181,111.564 356.310 C 112.373 356.438,113.391 356.774,113.826 357.055 C 114.261 357.336,115.837 357.743,117.328 357.959 C 118.819 358.175,121.527 358.617,123.346 358.942 C 125.165 359.266,127.617 359.510,128.794 359.483 L 130.934 359.434 128.472 359.115 C 127.118 358.939,125.455 358.626,124.776 358.418 C 124.096 358.211,122.249 357.926,120.670 357.786 C 119.092 357.646,117.341 357.350,116.779 357.130 C 115.668 356.694,111.945 355.559,108.560 354.625 C 105.463 353.770,100.504 351.755,99.025 350.751 C 98.323 350.275,97.217 349.769,96.567 349.626 C 95.917 349.483,95.176 349.115,94.921 348.808 C 94.666 348.500,94.240 348.249,93.974 348.249 C 93.708 348.249,93.073 347.923,92.562 347.524 C 92.052 347.126,91.206 346.665,90.683 346.501 C 90.161 346.337,88.901 345.619,87.885 344.905 C 86.869 344.190,85.597 343.495,85.058 343.360 C 84.519 343.225,83.875 342.869,83.626 342.569 C 83.377 342.269,82.993 342.023,82.774 342.023 C 82.300 342.023,72.388 334.621,71.114 333.316 C 70.630 332.820,69.533 331.914,68.677 331.303 C 65.690 329.172,56.809 319.779,56.809 318.752 C 56.809 318.518,56.577 318.187,56.293 318.015 C 55.538 317.560,52.621 313.843,50.396 310.500 C 49.329 308.898,48.347 307.500,48.213 307.393 C 48.078 307.286,47.669 306.673,47.304 306.031 C 46.938 305.389,46.217 304.163,45.701 303.307 C 45.185 302.451,44.565 301.313,44.324 300.778 C 44.083 300.243,43.728 299.543,43.535 299.222 C 43.343 298.901,42.977 298.200,42.723 297.665 C 42.470 297.130,42.055 296.430,41.801 296.109 C 41.547 295.788,40.881 294.651,40.320 293.583 C 39.519 292.057,39.300 291.842,39.300 292.579 M140.515 359.984 C 142.464 360.184,145.645 360.185,148.103 359.985 C 152.192 359.653,152.079 359.642,144.747 359.640 C 138.073 359.638,137.564 359.680,140.515 359.984 " stroke="none" fill="#ebccde" fill-rule="evenodd"></path></g></svg>